<svg width="216" height="64" viewBox="0 0 216 64" fill="none" xmlns="http://www.w3.org/2000/svg">
<path d="M37.8818 32.1064C37.8976 32.1827 37.9134 32.2789 37.9306 32.3934C37.9543 32.5238 37.9714 32.6805 37.9819 32.8425C37.9898 33.0084 37.9898 33.1677 37.9608 33.3534C37.9187 33.701 37.8186 34.0671 37.8186 34.3594C37.8186 34.5056 37.8397 34.6215 37.8647 34.7031C37.8897 34.7821 37.9108 34.8243 37.9108 34.8243C37.9108 34.8243 37.9069 34.7769 37.9069 34.6965C37.9042 34.6149 37.9121 34.5017 37.9437 34.3726C38.0017 34.1106 38.1439 33.7721 38.215 33.3903C38.2505 33.2099 38.269 33.0005 38.2479 32.8188C38.2334 32.6515 38.1913 32.5027 38.1452 32.3737C38.1834 32.4145 38.2216 32.458 38.2624 32.5001C38.3888 32.6265 38.5179 32.7582 38.6495 32.8912C38.7812 33.0229 38.9129 33.1638 39.0538 33.2902C39.092 33.3284 39.1302 33.3613 39.1697 33.3968C39.1842 33.4416 39.1987 33.4903 39.2171 33.5496C39.2698 33.7405 39.3224 33.9986 39.2724 34.258C39.2171 34.5425 39.1802 34.8414 39.2184 35.0666C39.2395 35.1811 39.279 35.2654 39.3106 35.322C39.3422 35.3773 39.3659 35.4063 39.3659 35.4063C39.3659 35.4063 39.2974 35.268 39.3119 35.06C39.3224 34.8532 39.408 34.5872 39.4989 34.316C39.5516 34.1698 39.5753 34.0052 39.5674 33.859C39.566 33.8195 39.5621 33.7814 39.5555 33.7458C39.9466 34.0869 40.3311 34.4016 40.6485 34.6465C41.0975 35.0007 41.4149 35.2154 41.4149 35.2154C41.4149 35.2154 41.1778 34.9112 40.7907 34.4911C40.5076 34.1725 40.1454 33.7879 39.7478 33.4008C39.8044 33.4008 39.8597 33.4034 39.919 33.4008C40.0664 33.3955 40.2245 33.3534 40.3667 33.2902C40.6274 33.1756 40.8855 33.0637 41.0922 33.0374C41.2977 33.0031 41.4412 33.0584 41.4412 33.0584C41.4412 33.0584 41.4083 33.0374 41.3517 33.011C41.2937 32.9847 41.2029 32.9557 41.0896 32.9452C40.8618 32.9267 40.5655 32.9913 40.289 33.0716C40.1586 33.1098 40.0348 33.119 39.9111 33.119C39.7899 33.1177 39.6753 33.0966 39.5766 33.0821C39.4897 33.0663 39.4186 33.0492 39.3646 33.0334C39.3514 33.0202 39.3369 33.0058 39.3251 32.9939C39.1855 32.8622 39.0354 32.7424 38.8958 32.6226C38.7562 32.5027 38.6206 32.3868 38.4863 32.2749C38.6008 32.2999 38.7233 32.321 38.8602 32.3276C39.0499 32.3329 39.2645 32.3078 39.4607 32.2486C39.649 32.1933 39.8386 32.1235 40.0019 32.0445C40.1705 31.972 40.3245 31.9062 40.4588 31.8601C40.5932 31.814 40.7117 31.7956 40.7946 31.793C40.8776 31.7851 40.9276 31.7877 40.9276 31.7877C40.9276 31.7877 40.8802 31.7719 40.796 31.7574C40.7117 31.7469 40.5853 31.7416 40.4351 31.7627C40.2877 31.7824 40.1191 31.8338 39.9453 31.8838C39.7662 31.9286 39.5884 31.9839 39.4028 32.0247C39.0472 32.1037 38.6798 32.0339 38.4046 31.9905C38.2571 31.9668 38.136 31.9404 38.0543 31.922C37.9306 31.8298 37.8147 31.7403 37.7027 31.6613C37.2445 31.3202 36.9219 31.1095 36.9219 31.1095C36.9219 31.1095 37.1773 31.3966 37.5803 31.8048C37.6711 31.9009 37.7752 32.001 37.8818 32.1064Z" fill="#215590"/>
<path d="M11.5343 31.9213C11.4514 31.9371 11.3315 31.9621 11.1814 31.9897C10.9062 32.0332 10.5388 32.103 10.1859 32.0226C9.99891 31.9845 9.81982 31.9292 9.64337 31.8804C9.46823 31.8317 9.30099 31.7817 9.15219 31.7606C9.00208 31.7382 8.87698 31.7435 8.7927 31.7566C8.70711 31.7698 8.6597 31.7843 8.6597 31.7843C8.6597 31.7843 8.70843 31.783 8.7927 31.7896C8.87698 31.7935 8.99418 31.812 9.12849 31.858C9.26412 31.9028 9.41819 31.97 9.58279 32.0437C9.74871 32.1214 9.93702 32.1899 10.128 32.2465C10.3242 32.3058 10.5362 32.3321 10.7284 32.3242C10.8641 32.3202 10.9865 32.2979 11.1011 32.2728C10.9668 32.3861 10.8311 32.4993 10.6929 32.6192C10.552 32.7416 10.4019 32.8615 10.2649 32.9905C10.2504 33.0037 10.2373 33.0195 10.2241 33.0313C10.1688 33.0458 10.099 33.0629 10.0108 33.0801C9.91331 33.0945 9.79743 33.1143 9.67629 33.1169C9.55382 33.1169 9.42741 33.1077 9.29968 33.0708C9.02183 32.9892 8.72686 32.926 8.49773 32.9418C8.38449 32.951 8.29494 32.9839 8.23832 33.0076C8.17643 33.0366 8.14746 33.055 8.14746 33.055C8.14746 33.055 8.29099 32.9984 8.4951 33.0353C8.70184 33.059 8.96125 33.1722 9.22198 33.2894C9.36288 33.3513 9.52354 33.3921 9.66839 33.3987C9.72896 33.4014 9.78295 33.4014 9.83826 33.3987C9.44321 33.7872 9.07977 34.1717 8.79797 34.4864C8.40687 34.9104 8.17116 35.2146 8.17116 35.2146C8.17116 35.2146 8.49247 35 8.93887 34.6444C9.25622 34.3982 9.64073 34.0861 10.0305 33.7424C10.0266 33.7819 10.0226 33.8162 10.0213 33.8583C10.0121 34.0045 10.0384 34.1677 10.0885 34.3126C10.178 34.5825 10.2662 34.8512 10.2741 35.0605C10.2899 35.2673 10.2228 35.4042 10.2228 35.4042C10.2228 35.4042 10.2452 35.3739 10.2781 35.32C10.3084 35.2633 10.3479 35.1791 10.3689 35.0658C10.4071 34.8393 10.3716 34.5391 10.3136 34.2547C10.2649 33.9952 10.3189 33.7371 10.3716 33.5462C10.3874 33.4883 10.4032 33.4382 10.4203 33.3948C10.4572 33.3592 10.4953 33.325 10.5335 33.2894C10.6758 33.1604 10.8048 33.0208 10.9378 32.8878C11.0695 32.7561 11.1985 32.6244 11.3236 32.4967C11.3658 32.4532 11.4053 32.4124 11.4435 32.3716C11.3961 32.4993 11.3552 32.6508 11.3394 32.8167C11.3184 32.9971 11.3381 33.2078 11.371 33.3869C11.4448 33.7687 11.5883 34.1085 11.6436 34.3705C11.6752 34.5009 11.6844 34.6155 11.6818 34.6932C11.6818 34.7748 11.6779 34.8209 11.6779 34.8209C11.6779 34.8209 11.6976 34.7801 11.7239 34.7011C11.7476 34.622 11.7687 34.5022 11.77 34.3574C11.7687 34.065 11.6699 33.7003 11.6265 33.35C11.5988 33.167 11.5975 33.0037 11.6067 32.8391C11.616 32.6771 11.6344 32.523 11.6555 32.39C11.6752 32.2781 11.691 32.1793 11.7042 32.1043C11.8122 32.0003 11.9162 31.8975 12.0071 31.8027C12.41 31.3945 12.6641 31.1088 12.6641 31.1088C12.6641 31.1088 12.3428 31.3181 11.8833 31.6592C11.7727 31.7356 11.6555 31.8264 11.5343 31.9213Z" fill="#215590"/>
<path d="M37.6757 21.2798C37.6968 21.3536 37.7231 21.4497 37.7547 21.5603C37.7876 21.6907 37.8206 21.8408 37.8469 22.0028C37.8732 22.1647 37.8904 22.3267 37.8785 22.5137C37.8719 22.864 37.81 23.2366 37.8377 23.5276C37.8535 23.6725 37.8877 23.7884 37.9206 23.8647C37.9522 23.9411 37.9773 23.9819 37.9773 23.9819C37.9773 23.9819 37.9694 23.9358 37.9615 23.8542C37.9496 23.7765 37.9457 23.662 37.9654 23.529C37.9957 23.263 38.1024 22.9114 38.1366 22.5229C38.1524 22.3425 38.1511 22.1305 38.1116 21.954C38.0787 21.7894 38.022 21.6433 37.9641 21.5208C38.0049 21.5577 38.0484 21.5932 38.0931 21.6341C38.2314 21.746 38.3736 21.8645 38.5185 21.983C38.6633 22.1028 38.8055 22.2293 38.9596 22.3425C39.0018 22.3728 39.0426 22.4031 39.0847 22.4334C39.1045 22.4755 39.1255 22.5242 39.1492 22.5782C39.2203 22.7665 39.2967 23.0167 39.2757 23.2814C39.248 23.5658 39.244 23.8713 39.3046 24.0899C39.3362 24.2018 39.3836 24.2822 39.4205 24.3362C39.4574 24.3875 39.4837 24.4125 39.4837 24.4125C39.4837 24.4125 39.4021 24.2835 39.3968 24.0754C39.3836 23.87 39.4455 23.5948 39.5061 23.3156C39.543 23.1655 39.5509 23.0009 39.5272 22.8547C39.5219 22.8152 39.514 22.7797 39.5048 22.7415C39.9301 23.0444 40.3436 23.3156 40.6833 23.5276C41.1653 23.8371 41.505 24.0162 41.505 24.0162C41.505 24.0162 41.239 23.7383 40.8097 23.3578C40.4963 23.072 40.0947 22.727 39.6615 22.3794C39.7168 22.3754 39.7734 22.3728 39.8327 22.3636C39.9775 22.3425 40.1329 22.2846 40.2659 22.2069C40.5148 22.0686 40.7597 21.929 40.9638 21.8816C41.1627 21.825 41.3115 21.8671 41.3115 21.8671C41.3115 21.8671 41.2785 21.85 41.218 21.8303C41.1561 21.8105 41.0639 21.7894 40.9506 21.7921C40.7215 21.7973 40.4331 21.8908 40.1658 22.0001C40.0434 22.0488 39.9169 22.0699 39.7958 22.0805C39.6746 22.091 39.5588 22.0857 39.4587 22.0791C39.3705 22.0712 39.2967 22.0607 39.2414 22.0528C39.2282 22.0423 39.2124 22.0278 39.198 22.0172C39.0465 21.9014 38.8885 21.7987 38.7344 21.6907C38.5843 21.5866 38.4382 21.4839 38.2933 21.3852C38.4105 21.401 38.5343 21.4089 38.6699 21.401C38.8609 21.3878 39.0715 21.3417 39.2598 21.2627C39.4429 21.189 39.6233 21.0968 39.7787 21.0059C39.938 20.9151 40.0842 20.8347 40.2132 20.7768C40.3436 20.7175 40.4568 20.6873 40.5424 20.6728C40.6241 20.6583 40.6728 20.6543 40.6728 20.6543C40.6728 20.6543 40.6254 20.6464 40.5398 20.6425C40.4516 20.6359 40.3278 20.6451 40.1803 20.6807C40.0355 20.7162 39.8735 20.7834 39.7036 20.8505C39.5337 20.9177 39.3612 20.9862 39.1795 21.0467C38.8358 21.1626 38.4645 21.1297 38.184 21.1126C38.0326 21.0994 37.9114 21.0889 37.8272 21.081C37.6955 20.9993 37.5704 20.923 37.4545 20.8558C36.9607 20.5622 36.6196 20.3857 36.6196 20.3857C36.6196 20.3857 36.9014 20.6464 37.3426 21.0099C37.4453 21.0968 37.5572 21.1863 37.6757 21.2798Z" fill="#215590"/>
<path d="M11.8162 21.1527C11.7346 21.1619 11.6108 21.1724 11.4593 21.1843C11.1828 21.2014 10.8102 21.233 10.4651 21.1184C10.2821 21.0592 10.1122 20.9854 9.94106 20.9222C9.77119 20.8538 9.61053 20.7879 9.46305 20.7524C9.3182 20.7142 9.19179 20.7076 9.10488 20.7129C9.01928 20.7181 8.97188 20.726 8.97188 20.726C8.97188 20.726 9.01928 20.73 9.10356 20.7445C9.1852 20.7563 9.3024 20.7879 9.43145 20.8472C9.5605 20.9051 9.70535 20.9854 9.866 21.0763C10.0227 21.1698 10.2018 21.2593 10.3848 21.3331C10.5758 21.4147 10.7838 21.4582 10.9748 21.4713C11.1104 21.4779 11.2342 21.4713 11.3501 21.4569C11.2065 21.5569 11.0604 21.6583 10.9102 21.761C10.7575 21.8703 10.5981 21.9731 10.4467 22.0903C10.4322 22.1008 10.4177 22.1126 10.4019 22.1232C10.3466 22.1324 10.2742 22.1429 10.186 22.1508C10.0872 22.1574 9.97003 22.1653 9.84888 22.1548C9.72773 22.1416 9.60263 22.1205 9.47885 22.0692C9.21022 21.9599 8.92316 21.8677 8.69403 21.8624C8.58078 21.8598 8.48861 21.8822 8.4254 21.9006C8.36614 21.923 8.33322 21.9401 8.33322 21.9401C8.33322 21.9401 8.4807 21.8954 8.68349 21.9533C8.88365 22.002 9.13121 22.139 9.37746 22.2772C9.51177 22.3562 9.66847 22.4116 9.81201 22.4339C9.87126 22.4432 9.92657 22.4458 9.98188 22.4484C9.54864 22.7961 9.15096 23.1424 8.83493 23.4295C8.40565 23.81 8.13965 24.0879 8.13965 24.0879C8.13965 24.0879 8.47939 23.9088 8.96266 23.5993C9.30108 23.3886 9.71456 23.1147 10.1386 22.8132C10.1307 22.8501 10.1215 22.8856 10.1162 22.9264C10.0951 23.0713 10.103 23.2359 10.1386 23.3847C10.1992 23.6652 10.261 23.9404 10.2479 24.1471C10.2426 24.3578 10.161 24.4829 10.161 24.4829C10.161 24.4829 10.1873 24.4592 10.2242 24.4079C10.261 24.3552 10.3071 24.2722 10.3414 24.1616C10.4006 23.9404 10.3967 23.6388 10.3677 23.3518C10.3466 23.0884 10.4243 22.8382 10.4954 22.6512C10.5191 22.5959 10.5415 22.5485 10.5613 22.505C10.6021 22.4748 10.6429 22.4432 10.6851 22.4116C10.8378 22.2996 10.98 22.1732 11.1262 22.0547C11.2724 21.9362 11.4133 21.8177 11.5528 21.7044C11.5963 21.6662 11.6398 21.6294 11.6806 21.5912C11.6213 21.7136 11.566 21.8598 11.5344 22.0244C11.4949 22.2009 11.4923 22.4102 11.5094 22.5959C11.5423 22.9817 11.649 23.3333 11.6793 23.5993C11.699 23.7323 11.6951 23.8469 11.6832 23.9246C11.6766 24.0075 11.6674 24.0536 11.6674 24.0536C11.6674 24.0536 11.6911 24.0141 11.7253 23.9351C11.7569 23.8614 11.7912 23.7455 11.807 23.5993C11.8346 23.3096 11.7727 22.9356 11.7648 22.5854C11.7556 22.3971 11.7714 22.2364 11.7965 22.0718C11.8228 21.9112 11.857 21.761 11.8913 21.6307C11.9202 21.5201 11.9479 21.4266 11.969 21.3502C12.0888 21.258 12.1994 21.1698 12.3021 21.0803C12.7432 20.7181 13.025 20.4574 13.025 20.4574C13.025 20.4574 12.684 20.6339 12.1928 20.9262C12.073 20.9933 11.9479 21.071 11.8162 21.1527Z" fill="#215590"/>
<path d="M39.6848 12.9867C39.7783 12.8906 39.8771 12.7853 39.9785 12.6747C40.0535 12.6589 40.151 12.6391 40.2642 12.618C40.3959 12.593 40.5473 12.5719 40.7093 12.5548C40.8739 12.5417 41.0385 12.5377 41.2215 12.5614C41.5718 12.5943 41.9405 12.6852 42.2328 12.6773C42.3764 12.6707 42.4949 12.6444 42.5739 12.6193C42.6529 12.5917 42.6951 12.5719 42.6951 12.5719C42.6951 12.5719 42.6476 12.5759 42.566 12.5772C42.4857 12.5825 42.3737 12.5772 42.2407 12.5496C41.9787 12.4995 41.635 12.3665 41.2518 12.3046C41.0701 12.277 40.8594 12.2625 40.6803 12.2888C40.5131 12.3086 40.3643 12.3547 40.2379 12.4073C40.2787 12.3639 40.3195 12.3257 40.359 12.2836C40.4841 12.1545 40.6105 12.0215 40.7422 11.8859C40.8673 11.7489 41.0056 11.6146 41.1294 11.4711C41.1649 11.4303 41.1978 11.3921 41.2321 11.3513C41.2755 11.3354 41.3242 11.3157 41.3822 11.2999C41.5718 11.242 41.8286 11.184 42.0893 11.2235C42.3737 11.2722 42.6753 11.2999 42.9005 11.2551C43.0111 11.2301 43.098 11.1893 43.152 11.1564C43.2073 11.1234 43.2336 11.0984 43.2336 11.0984C43.2336 11.0984 43.1006 11.1735 42.8913 11.1616C42.6832 11.159 42.4146 11.0787 42.142 10.9957C41.9932 10.9483 41.8286 10.9299 41.6851 10.9417C41.6429 10.943 41.606 10.9496 41.5679 10.9549C41.9023 10.5533 42.2026 10.1608 42.4396 9.83559C42.782 9.38129 42.9861 9.05472 42.9861 9.05472C42.9861 9.05472 42.6885 9.29965 42.2776 9.69864C41.9695 9.99229 41.5955 10.365 41.2202 10.7719C41.2202 10.7165 41.2202 10.6612 41.2149 10.602C41.2044 10.4558 41.1583 10.2978 41.0925 10.1582C40.9713 9.90012 40.8502 9.64465 40.8173 9.44186C40.7764 9.23381 40.8291 9.09159 40.8291 9.09159C40.8291 9.09159 40.8094 9.12056 40.7857 9.18245C40.7593 9.23907 40.733 9.33257 40.7264 9.44581C40.7146 9.67362 40.7883 9.96859 40.8752 10.2425C40.9173 10.3689 40.9292 10.494 40.9331 10.6178C40.9331 10.7402 40.9187 10.8548 40.9055 10.9536C40.8897 11.0418 40.8739 11.1103 40.8634 11.1682C40.8502 11.184 40.8383 11.1959 40.8252 11.209C40.6974 11.3513 40.5842 11.504 40.463 11.6475C40.3498 11.7898 40.2379 11.9293 40.1286 12.065C40.151 11.9491 40.1681 11.8266 40.1707 11.6923C40.172 11.5014 40.1417 11.288 40.0759 11.0945C40.014 10.9048 39.939 10.7179 39.8573 10.5559C39.7783 10.3913 39.7098 10.2385 39.6598 10.1069C39.6097 9.97518 39.5887 9.85666 39.5808 9.7737C39.5729 9.68811 39.5729 9.63939 39.5729 9.63939C39.5729 9.63939 39.5597 9.68548 39.5492 9.7737C39.5373 9.85798 39.5347 9.98439 39.5623 10.1319C39.5874 10.2807 39.6414 10.4466 39.6953 10.6204C39.7493 10.7956 39.8099 10.9707 39.8534 11.1577C39.9429 11.5093 39.885 11.878 39.8494 12.1545C39.8244 12.3033 39.8046 12.4258 39.7915 12.5074C39.6993 12.6325 39.6137 12.7523 39.5373 12.8643C39.2108 13.3357 39.0093 13.6609 39.0093 13.6609C39.0093 13.6609 39.2884 13.4002 39.6848 12.9867Z" fill="#215590"/>
<path d="M9.91535 12.5701C9.89823 12.4885 9.87848 12.3673 9.85741 12.2159C9.81922 11.9393 9.76128 11.5706 9.84951 11.219C9.89428 11.0334 9.95486 10.8556 10.0075 10.6805C10.0615 10.508 10.1168 10.3434 10.1418 10.1919C10.1669 10.0444 10.1669 9.91803 10.1563 9.83244C10.1445 9.74816 10.1326 9.70075 10.1326 9.70075C10.1326 9.70075 10.1326 9.74948 10.1234 9.83375C10.1155 9.91671 10.0944 10.0352 10.0431 10.1682C9.99568 10.2999 9.92589 10.454 9.84556 10.6186C9.76392 10.7805 9.69018 10.9649 9.62829 11.1545C9.56113 11.3494 9.53216 11.5601 9.53347 11.7524C9.53479 11.8867 9.55323 12.0105 9.57561 12.125C9.46632 11.992 9.35307 11.8498 9.23982 11.7076C9.12131 11.5654 9.00675 11.4126 8.8777 11.273C8.86716 11.2572 8.85268 11.2427 8.84214 11.2296C8.82898 11.173 8.81317 11.1018 8.79869 11.0163C8.78684 10.9175 8.76972 10.8016 8.77235 10.6791C8.7763 10.5567 8.78684 10.4303 8.82766 10.3025C8.91852 10.03 8.98831 9.73631 8.97909 9.50718C8.97251 9.39393 8.94354 9.30307 8.92115 9.2425C8.89482 9.18324 8.87375 9.15296 8.87375 9.15296C8.87375 9.15296 8.92774 9.29649 8.88692 9.50191C8.85268 9.70602 8.73417 9.9628 8.6117 10.2196C8.54586 10.3578 8.49977 10.5172 8.49055 10.6647C8.48397 10.7226 8.48397 10.7779 8.48397 10.8345C8.10736 10.4263 7.73338 10.0523 7.42525 9.76133C7.01572 9.36101 6.7168 9.11477 6.7168 9.11477C6.7168 9.11477 6.92354 9.44134 7.26591 9.89696C7.50162 10.2222 7.80318 10.6159 8.1337 11.0163C8.09683 11.0097 8.06127 11.0057 8.02177 11.0018C7.87428 10.9912 7.711 11.0097 7.56351 11.0584C7.29093 11.14 7.01967 11.2217 6.81293 11.2217C6.60355 11.2322 6.46924 11.1624 6.46924 11.1624C6.46924 11.1624 6.49557 11.1848 6.5522 11.2177C6.60619 11.252 6.69178 11.2915 6.80503 11.3152C7.0302 11.3599 7.33044 11.3323 7.61487 11.2849C7.8756 11.2427 8.13106 11.3033 8.322 11.3599C8.37862 11.3823 8.42735 11.3981 8.47212 11.4139C8.50636 11.4521 8.54059 11.4943 8.57483 11.5311C8.69993 11.676 8.83424 11.809 8.96461 11.9459C9.09234 12.0829 9.22139 12.2146 9.34385 12.3449C9.38599 12.3857 9.42681 12.4266 9.46632 12.4674C9.3399 12.416 9.1911 12.3713 9.02255 12.3502C8.84346 12.3239 8.63277 12.337 8.45237 12.3673C8.06917 12.4292 7.72548 12.5609 7.46212 12.6096C7.33175 12.6399 7.21587 12.6452 7.13818 12.6399C7.05654 12.6373 7.01045 12.632 7.01045 12.632C7.01045 12.632 7.05259 12.6517 7.13028 12.682C7.20797 12.707 7.32649 12.7321 7.47265 12.7373C7.76499 12.7426 8.13106 12.6544 8.48134 12.6228C8.66569 12.5978 8.82898 12.603 8.99358 12.6162C9.15686 12.6307 9.30962 12.6544 9.44261 12.6807C9.55323 12.7018 9.64935 12.7202 9.72705 12.736C9.82844 12.8453 9.92589 12.9507 10.0194 13.0468C10.4144 13.4603 10.6949 13.7236 10.6949 13.7236C10.6949 13.7236 10.4921 13.3957 10.1669 12.927C10.0905 12.815 10.0036 12.6939 9.91535 12.5701Z" fill="#215590"/>
<path d="M29.7329 11.3279C29.7303 11.1909 29.7185 11.0447 29.7079 10.8907C29.7408 10.8117 29.7882 10.6984 29.8462 10.5602C29.9621 10.306 30.1082 9.96364 30.3716 9.71081C30.5072 9.57913 30.6521 9.46062 30.7903 9.34079C30.9286 9.22096 31.0642 9.11034 31.163 8.99841C31.2618 8.88648 31.3289 8.77719 31.3658 8.69818C31.4013 8.61917 31.4158 8.57571 31.4158 8.57571C31.4158 8.57571 31.3908 8.61654 31.3381 8.68369C31.2868 8.74953 31.2065 8.83908 31.0932 8.92467C30.9813 9.01026 30.8417 9.10244 30.6876 9.19989C30.5322 9.29601 30.369 9.41321 30.2175 9.54094C30.0595 9.66999 29.9199 9.83328 29.8185 9.99656C29.7487 10.1151 29.6987 10.227 29.6579 10.3363C29.6381 10.1625 29.6157 9.98603 29.5934 9.80431C29.5697 9.61863 29.5525 9.42901 29.5196 9.24202C29.5157 9.22096 29.5143 9.20515 29.5117 9.18408C29.5302 9.13141 29.5539 9.06294 29.5881 8.98261C29.6289 8.89043 29.6776 8.78509 29.7435 8.68501C29.8106 8.58098 29.8896 8.4809 29.9897 8.39268C30.2123 8.20964 30.4309 7.99895 30.5415 7.79879C30.5955 7.69871 30.6205 7.60785 30.631 7.54596C30.6415 7.48012 30.6402 7.44325 30.6402 7.44325C30.6402 7.44325 30.6099 7.59337 30.4664 7.7448C30.3295 7.9015 30.0911 8.05557 29.8515 8.20832C29.7211 8.29128 29.5973 8.40058 29.513 8.51909C29.4762 8.5665 29.4485 8.61522 29.4209 8.66262C29.3155 8.11746 29.1957 7.60127 29.089 7.19042C28.956 6.63341 28.8309 6.26602 28.8309 6.26602C28.8309 6.26602 28.8309 6.65316 28.881 7.22071C28.9086 7.62366 28.956 8.11483 29.0245 8.6297C28.9942 8.606 28.9692 8.58098 28.9349 8.5586C28.8191 8.47037 28.6676 8.40058 28.5188 8.36239C28.2449 8.28733 27.971 8.21359 27.7959 8.10429C27.6115 8.00158 27.5378 7.86858 27.5378 7.86858C27.5378 7.86858 27.547 7.90414 27.576 7.96076C27.6063 8.01738 27.6563 8.10034 27.7366 8.17804C27.9039 8.33737 28.1751 8.473 28.4411 8.5823C28.6848 8.68633 28.8704 8.872 29.0008 9.02343C29.039 9.06689 29.0719 9.10771 29.0996 9.1459C29.1061 9.19857 29.1154 9.24993 29.1246 9.29996C29.1535 9.48959 29.1983 9.67394 29.2325 9.8583C29.2707 10.0413 29.3089 10.2244 29.3445 10.3982C29.3563 10.4561 29.3708 10.5128 29.3827 10.5667C29.3037 10.4561 29.2009 10.3389 29.0706 10.2323C28.9323 10.1151 28.7466 10.015 28.5781 9.94257C28.2199 9.79245 27.8578 9.72398 27.6102 9.6239C27.4812 9.58045 27.3837 9.52382 27.3179 9.47774C27.2507 9.43428 27.2139 9.40399 27.2139 9.40399C27.2139 9.40399 27.2389 9.4435 27.2916 9.50802C27.3442 9.56991 27.4298 9.65551 27.5497 9.73847C27.7946 9.89648 28.1514 10.0189 28.4675 10.177C28.6347 10.2533 28.7717 10.3429 28.9047 10.443C29.0337 10.5404 29.1509 10.6418 29.2497 10.7327C29.3353 10.8117 29.4064 10.8788 29.4617 10.9315C29.4906 11.0803 29.5143 11.2212 29.5446 11.3516C29.6605 11.9125 29.7593 12.2839 29.7593 12.2839C29.7593 12.2839 29.7606 11.9007 29.7329 11.3279Z" fill="#215590"/>
<path d="M20.1157 29.3532C17.0423 28.1378 13.4974 30.8728 13.3394 30.9979L12.9233 31.3258L13.4447 31.4206C13.5066 31.4338 14.9683 31.7222 15.233 32.9771C15.466 34.0819 14.8748 35.0656 14.377 35.4106C13.8134 35.803 12.8706 36.4601 9.94066 36.2006C8.07736 36.0374 7.08711 36.1309 6.58672 36.2388C6.74343 35.5567 7.04629 34.1859 7.13979 33.2892C7.24513 32.3332 7.55327 31.0493 7.55722 31.0282C7.5638 31.0058 8.04181 28.8251 9.73524 28.3234C11.5406 27.7901 12.2109 29.0846 12.3254 29.3506C12.3281 29.3532 12.4716 29.6837 12.515 30.0853L12.5769 30.6661L12.943 30.2065C12.9654 30.1762 15.3897 27.2094 20.1197 28.0509C20.0314 28.4854 20.0393 28.9239 20.1157 29.3532ZM36.2402 30.9979C36.0861 30.8741 32.5728 28.1641 29.5099 29.3361C29.5112 29.3282 29.5125 29.319 29.5125 29.3137C29.5323 29.2057 29.6179 28.6724 29.4757 28.0482C34.1846 27.2173 36.6168 30.1775 36.6418 30.2065L37.0039 30.6634L37.0684 30.084C37.1092 29.6877 37.2554 29.3532 37.2567 29.3506C37.3713 29.0846 38.0442 27.7914 39.8469 28.3234C41.5377 28.8225 42.0184 31.0058 42.0249 31.0335C42.0289 31.0493 42.3383 32.3332 42.4424 33.2905C42.5359 34.1859 42.84 35.5567 42.9967 36.2388C42.495 36.1309 41.5035 36.0374 39.6402 36.202C36.7129 36.4601 35.7701 35.803 35.2038 35.4092C34.7074 35.0655 34.1161 34.0819 34.3492 32.9771C34.6139 31.7208 36.0769 31.4338 36.1374 31.4206L36.6589 31.3258L36.2402 30.9979ZM48.5774 36.7919V37.3805L48.5669 37.9468L48.5524 38.4998L48.53 39.0371L48.5037 39.5612L48.4694 40.0695L48.4313 40.5646L48.3852 41.0452L48.3351 41.5127L48.3154 41.6641H46.4797V37.3555H36.1177V41.7616H30.034V37.4543H27.004C27.0066 36.7168 27.0093 35.7068 26.9987 35.1432L26.9645 33.2128C27.4372 32.6505 27.8165 32.1975 27.8178 32.1962C28.7461 31.2665 29.1688 30.4527 29.3571 29.926C31.6747 28.783 34.5164 30.408 35.5488 31.0953C34.8838 31.3482 34.0845 31.8973 33.8791 32.8783C33.6184 34.1201 34.2241 35.3131 34.9299 35.8043C35.5488 36.2349 36.5799 36.9539 39.6836 36.6773C42.5029 36.4311 43.1956 36.7972 43.1956 36.7972L43.7052 37.1277L43.5617 36.5391C43.5564 36.5154 43.0441 34.4137 42.9191 33.2391C42.8124 32.2489 42.5056 30.9755 42.495 30.9281C42.4727 30.8293 41.9499 28.4446 39.9812 27.8626C38.2865 27.3635 37.2172 28.2471 36.8169 29.157C36.813 29.1662 36.7432 29.3242 36.6813 29.556C35.8267 28.7409 33.3432 26.8539 29.3255 27.5887C29.1978 27.2845 29.0042 26.9803 28.7172 26.7051C28.8159 26.2626 29.4427 23.0193 27.2595 20.3435C27.2371 20.3211 27.0672 20.1263 26.763 19.8392C28.8396 18.7107 31.4377 19.456 31.4522 19.4573L35.0208 20.7399C34.4164 21.0796 33.7514 21.6998 33.6631 22.648C33.5433 23.9134 34.2807 25.0288 35.0379 25.4383C35.4896 25.6832 36.1559 26.0414 37.5109 26.0414C38.1337 26.0414 38.8988 25.9663 39.8574 25.7701C42.6307 25.2052 43.3628 25.4883 43.3641 25.4897L43.904 25.7596L43.696 25.192C43.6881 25.171 42.9414 23.1391 42.6847 21.9856C42.4674 21.0151 42.0183 19.7839 42.0025 19.7404C41.9683 19.6417 41.1769 17.332 39.1609 16.9764C37.4161 16.6696 36.4535 17.6717 36.1598 18.6211C36.1559 18.633 36.0874 18.8555 36.0532 19.1623C35.3711 18.8805 33.7263 18.2076 32.453 17.7612C34.0898 17.5018 37.1501 16.8026 38.8158 15.0433L38.9225 14.9195C39.149 15.6082 39.7482 16.5827 40.8727 16.7697C42.1276 16.9791 43.2904 16.322 43.7526 15.5977C44.1555 14.9604 44.8324 13.9003 44.4268 10.8124C44.0607 8.00362 44.3965 7.29517 44.3952 7.29517L44.7047 6.77503L44.1226 6.94095C44.1002 6.94753 42.021 7.54932 40.8516 7.72314C39.868 7.87194 38.6091 8.23275 38.5617 8.24723C38.4643 8.27225 36.1032 8.8951 35.6068 10.8835C35.1762 12.6006 36.1045 13.6317 37.0316 13.9938C37.0421 13.9965 37.1646 14.0439 37.3529 14.0913C36.5009 14.701 34.3281 15.9559 30.9123 16.0086C31.073 15.4845 31.2994 14.4099 30.9663 13.2301L30.961 13.2169C31.522 13.396 32.449 13.5237 33.2852 12.8561C34.2794 12.0647 34.5691 10.7597 34.336 9.92881C34.1346 9.20456 33.7948 7.99308 31.2283 6.23118C28.8936 4.62861 28.5908 3.90437 28.5908 3.90437L28.4104 3.32496L28.1457 3.87144C28.1351 3.88988 27.1923 5.84141 26.5418 6.8277C25.994 7.6573 25.4225 8.83717 25.4014 8.87799C25.3527 8.97017 24.2413 11.1429 25.3856 12.8416C26.3772 14.3072 27.7664 14.3046 28.6526 13.8582C28.6645 13.8529 28.8647 13.7502 29.103 13.5685C29.2426 14.0491 29.4243 14.9854 29.0595 15.7887C28.7962 16.3746 28.2839 16.7987 27.5386 17.0502C26.5839 17.3715 25.6622 17.8113 24.7944 18.3472C24.0411 17.8811 23.1246 17.4162 22.0435 17.0502C21.2982 16.7987 20.786 16.3746 20.5226 15.7887C20.1579 14.9854 20.3396 14.0491 20.4792 13.5685C20.7175 13.7502 20.919 13.8529 20.9295 13.8582C21.8157 14.3046 23.2063 14.3072 24.1952 12.8416C25.3408 11.1429 24.2308 8.97017 24.1847 8.88589C24.161 8.83717 23.5895 7.6573 23.0377 6.8277C22.3912 5.84141 21.4457 3.88988 21.4365 3.87144L21.1942 3.38159L20.9953 3.89515C20.9927 3.90305 20.6898 4.62861 18.3551 6.23118C15.7873 7.99308 15.4476 9.20456 15.2448 9.93144C15.013 10.7597 15.3041 12.0647 16.2969 12.8561C17.1331 13.5237 18.0602 13.396 18.6211 13.2169L18.6145 13.2367C18.2827 14.4139 18.5092 15.4845 18.6698 16.0086C15.2619 15.9559 13.0865 14.701 12.2306 14.0913C12.4176 14.0439 12.5414 13.9978 12.5506 13.9938C13.4763 13.6317 14.4073 12.6006 13.9767 10.8835C13.4803 8.8951 11.1205 8.27225 11.0284 8.24723C10.9744 8.23275 9.71548 7.87194 8.7305 7.72314C7.56249 7.54932 5.48191 6.94753 5.46084 6.94095L4.93543 6.79478L5.18431 7.28859C5.18695 7.29517 5.52274 8.00099 5.15534 10.8124C4.74976 13.8977 5.42529 14.9604 5.83087 15.599C6.29176 16.322 7.45582 16.9791 8.70944 16.7697C9.83136 16.5827 10.4292 15.6122 10.6596 14.9195L10.7716 15.0486C12.4347 16.8052 15.491 17.5045 17.1265 17.7612C15.8558 18.2076 14.2111 18.8805 13.5303 19.1623C13.4948 18.8555 13.4276 18.633 13.4236 18.6211C13.126 17.6717 12.1661 16.6696 10.4226 16.9764C8.40393 17.332 7.61384 19.6417 7.58224 19.7312C7.56512 19.7839 7.11477 21.0151 6.89749 21.9856C6.64071 23.1391 5.89408 25.1736 5.88749 25.192L5.70182 25.7056L6.21143 25.4923C6.21802 25.4897 6.94753 25.2052 9.7247 25.7701C12.7745 26.3943 13.8845 25.7965 14.5482 25.4357C15.3027 25.0288 16.0388 23.9134 15.919 22.648C15.8321 21.6998 15.1671 21.0796 14.5614 20.7399L18.1168 19.4639C18.1444 19.456 20.7399 18.708 22.8205 19.8405C22.5005 20.1394 22.3306 20.3369 22.3201 20.3488C20.1921 22.9561 20.7399 26.1046 20.8571 26.6656C20.4726 27.0659 20.2908 27.4794 20.279 27.5096C20.2671 27.5347 20.2619 27.5636 20.2527 27.586C16.2377 26.8552 13.7568 28.7409 12.9022 29.556C12.8403 29.3242 12.7718 29.1662 12.7666 29.157C12.3662 28.2471 11.297 27.3595 9.5996 27.8626C7.63359 28.4446 7.11082 30.8293 7.08975 30.9228C7.0779 30.9755 6.76976 32.2489 6.66442 33.2391C6.53932 34.4137 6.02444 36.5154 6.02049 36.5391L5.89671 37.0711L6.37867 36.8011C6.38525 36.7972 7.0779 36.4311 9.90116 36.6773C13.0023 36.9539 14.0346 36.2349 14.6549 35.8017C15.3567 35.3131 15.9664 34.1201 15.7017 32.8783C15.4963 31.8973 14.6983 31.3482 14.0346 31.0953C15.0723 30.4053 17.939 28.7672 20.2632 29.9444C20.6675 31.1862 21.5708 32.2963 22.2885 32.9547C22.3425 33.276 22.54 34.5783 22.4741 35.7608C22.4478 36.223 22.4386 36.8275 22.4412 37.4543H19.6733V41.7616H13.5909V37.4543H3.22752V41.7616H1.29443L1.26415 41.5127L1.21279 41.0452L1.16802 40.5633L1.12983 40.0695L1.09559 39.5612L1.06662 39.0371L1.04687 38.4998L1.03107 37.9454L1.02185 37.3805V36.7919H1.01922V1.05872H48.5774V36.7919ZM27.1396 44.2161C27.3213 44.3346 27.6347 44.4268 28.0864 44.1872C29.3743 43.5064 30.4751 43.8171 30.4857 43.8211L30.5357 43.829C31.8736 43.9383 33.0416 45.658 33.2339 46.1097C33.5315 46.8024 34.6731 47.6636 35.8504 47.4937C36.6036 47.3818 37.0605 47.0328 37.5886 46.6233C37.898 46.3876 38.247 46.1176 38.7171 45.8424C39.9154 45.1418 40.7345 45.6383 41.3323 46.0004C41.5101 46.1084 41.6312 46.2111 41.7444 46.2993C42.0763 46.5745 42.316 46.7431 43.0705 46.6957C43.3865 46.6746 43.4971 46.7365 43.5116 46.7589C43.5195 46.7694 43.5129 46.8089 43.4998 46.8432C43.3655 46.9722 42.6636 47.5424 41.6404 46.7194C40.4737 45.7766 39.9075 45.8951 39.3847 46.1123C39.3189 46.14 39.257 46.1663 39.1925 46.1834C38.9475 46.2506 38.617 46.5034 38.0995 46.913C37.7031 47.2224 37.2554 47.5766 36.838 47.8189C36.2639 48.1534 35.5264 48.8579 35.6858 49.3649C35.7305 49.5137 35.8846 49.7494 36.4179 49.7086C37.233 49.644 37.9876 50.5987 38.2233 51.3151C38.4972 52.15 39.1227 52.3699 39.1477 52.3791L39.2148 52.4028L39.2846 52.3843C39.5348 52.3211 39.8416 52.3014 39.9457 52.3369V52.3422C39.839 52.6991 39.4084 52.703 39.3913 52.703H39.3465L39.3044 52.7162C38.754 52.9269 38.1877 52.3198 37.8677 51.6245C37.5912 51.0135 36.4337 50.4302 35.4435 50.3986C34.7482 50.3801 34.2188 50.6356 33.9555 51.1268C33.3708 52.2132 33.5157 52.6135 33.8185 53.2232C33.8949 53.3785 33.9831 53.5537 34.0608 53.7683C34.286 54.382 34.1609 54.8349 34.0147 55.1088C33.883 55.3525 33.7171 55.4855 33.6408 55.525C33.6329 55.5197 33.6223 55.5171 33.6118 55.5131C33.6157 55.4394 33.6447 55.2669 33.7579 54.8613C33.9581 54.1436 33.6671 53.8131 33.4103 53.5181C33.2404 53.3232 33.0824 53.1415 32.9968 52.8215C32.8428 52.2355 33.0179 51.9063 33.2023 51.5574C33.2707 51.4297 33.3405 51.2927 33.3919 51.1531C33.6631 50.3828 33.5249 50.1365 32.9744 49.7876C32.6321 49.5716 32.5623 49.2451 32.5531 49.2055C32.2502 48.2258 31.7972 47.7281 31.6971 47.6306C31.2046 46.9604 29.9036 45.9346 28.4051 46.7339C27.8652 47.0249 27.5452 47.4147 27.4557 47.8927C27.2924 48.7907 28.0219 49.6427 28.0535 49.6809L28.1088 49.727C28.7027 50.0957 28.6224 51.0728 28.6118 51.1953C28.5815 51.3138 28.438 51.9537 28.4472 53.0981C28.4551 54.2095 29.344 54.6993 30.0564 55.0904C30.2789 55.2129 30.487 55.3274 30.6516 55.4486C31.2744 55.9108 31.2744 56.531 31.2744 56.9379C31.2744 57.0288 31.1862 57.0683 31.1283 57.0722C31.0427 57.0788 30.9939 57.0327 30.9781 56.9274C30.8847 56.294 30.2302 55.8713 30.1946 55.8489C30.1815 55.841 28.8831 55.0996 28.359 54.7849C27.9416 54.5347 27.3925 53.5537 27.5123 52.6477C27.644 51.643 27.4978 50.6435 27.133 50.0378C26.9948 49.8113 26.8894 49.6691 26.7959 49.54C26.6893 49.3965 26.5971 49.2688 26.472 49.037C26.1244 48.3746 25.8083 47.9375 25.4844 47.6596C25.3277 47.5279 25.1275 47.4989 24.9326 47.5845C24.4612 47.7873 24.0649 48.6354 24.0253 49.5124C23.9766 50.6198 24.5745 51.4823 25.329 52.5713L25.5292 52.8597C26.1573 53.7683 25.7385 54.6822 25.433 55.3551C25.3777 55.4749 25.3264 55.5842 25.2895 55.679C25.1288 56.0925 24.6443 57.5147 25.171 58.4615C25.3764 58.8341 25.3922 59.1646 25.3408 59.3398C25.3185 59.4135 25.2908 59.4464 25.2684 59.4399C24.9471 59.2884 24.7259 58.7696 24.4941 58.0388C24.3164 57.4831 24.5271 56.5389 24.6798 55.8489C24.7364 55.5934 24.7878 55.3696 24.8141 55.1852C24.8668 54.8336 24.7246 54.4728 24.4138 54.1765C24.0491 53.8249 23.5394 53.638 23.1483 53.7143C22.4544 53.8486 22.3108 54.6098 22.1318 55.5763L22.1054 55.7212C21.9448 56.5705 20.8452 57.0577 20.8452 57.0577C20.5634 57.1591 20.408 57.1473 20.362 57.1065C20.3251 57.0749 20.3146 56.9787 20.3356 56.8773C20.3501 56.8075 20.5345 56.7035 20.732 56.5942C20.8742 56.5126 21.052 56.4138 21.2469 56.2834C21.7683 55.9358 21.7736 55.5421 21.7802 54.8889C21.7841 54.6703 21.7868 54.4109 21.8065 54.0949C21.8763 53.0046 23.0759 52.4818 23.0865 52.4765L23.1352 52.4489C23.4341 52.229 23.87 51.6153 23.3735 50.8647C23.0654 50.3946 23.047 49.9996 23.0259 49.5822C23.0153 49.3794 23.0074 49.1726 22.964 48.9501C22.8863 48.5432 22.7335 48.2851 22.511 48.1797C22.3583 48.1073 22.1765 48.1179 22.0159 48.2061C21.8513 48.2969 21.7775 48.4708 21.684 48.6854C21.6116 48.8487 21.5234 49.0541 21.3733 49.2859C21.1573 49.6138 20.2711 50.0299 19.7457 50.2248C18.9885 50.5764 18.9451 51.2585 19.0214 51.5455C19.0662 51.83 19.0952 52.3672 18.9964 52.6029C18.8542 52.9545 18.6593 53.451 18.6593 53.451L18.6475 53.4892C18.3946 54.7112 17.5598 54.8823 17.5347 54.8863C17.5097 54.8889 17.4926 54.8903 17.4794 54.8903C17.4873 54.7875 17.5782 54.5663 17.7099 54.3806C17.9206 54.0804 18.0773 53.5313 18.3854 52.3567C18.5171 51.8471 18.4736 51.4297 18.2511 51.1149C18.0312 50.8002 17.6664 50.6659 17.4004 50.6435C17.0712 50.6145 16.0362 50.6145 16.0086 50.6145C14.7326 50.5276 14.2374 51.2795 14.2177 51.3138L14.1953 51.3533C13.9398 51.9946 13.5382 52.7531 13.342 52.8597C13.2643 52.9032 13.2209 52.9124 13.2143 52.9163C13.1972 52.8834 13.1853 52.7912 13.1892 52.7122C13.2301 52.5713 13.4605 51.7786 13.5764 51.4771C13.6896 51.1808 14.5482 50.0799 15.8637 50.0549C17.3385 50.0233 18.8344 49.3148 18.9148 49.2767C19.0952 49.1726 20.6951 48.2258 21.1362 47.7044C21.3996 47.391 21.6208 46.8879 21.451 46.4073C21.3483 46.1163 21.0625 45.737 20.2803 45.5803C18.8305 45.2906 17.8824 46.3033 17.8455 46.3441C17.835 46.3546 17.0423 47.2027 16.1021 48.0059C15.3343 48.667 14.3862 48.7578 13.2854 48.289C12.5085 47.9559 11.9198 47.9243 11.8961 47.923L11.8777 47.9216L11.8593 47.9243C10.5003 48.0718 9.58512 49.943 9.49162 50.3354C9.47319 50.3986 9.35336 50.5197 9.2783 50.554C9.2546 50.4789 9.22168 50.2392 9.37179 49.6045C9.78396 47.8795 11.2232 47.4529 11.2825 47.4344L11.7473 47.3054L11.3641 47.0117C11.3615 47.0117 11.1469 46.8432 10.5582 46.2822C9.97621 45.7265 9.16505 45.7634 8.27094 46.3915C7.75343 46.7563 6.6552 46.9367 6.62228 46.9419C6.45373 46.9907 6.2088 46.9525 6.06263 46.8616C6.00469 46.8234 5.98757 46.7958 5.98757 46.7879C6.00732 46.672 6.08238 46.6312 6.12189 46.6167C6.33258 46.6233 7.21353 46.6114 7.94436 45.9082C8.60014 45.2762 9.20061 45.2169 9.19139 45.2143C10.2751 45.2827 10.628 45.5803 11.1627 46.0281C11.5129 46.3204 11.9462 46.6852 12.681 47.0683C14.7457 48.1455 15.8045 46.4666 16.4378 45.4618C17.033 44.515 17.806 43.9409 18.9411 43.6038C19.5745 43.4194 20.3448 43.638 20.9624 43.8158C21.3338 43.9212 21.6551 44.016 21.9132 44.016C22.5953 44.016 22.8323 43.3483 22.8586 42.9875C22.8652 42.9125 22.9693 41.0821 22.9679 40.5198C22.9679 40.3881 22.9627 40.1327 22.9548 39.8021C22.9429 39.3083 22.9311 38.667 22.9245 38.0139H26.5207C26.5194 38.2167 26.5181 38.3457 26.5181 38.3536V41.8393C26.5062 42.0328 26.4167 43.75 27.1396 44.2161ZM22.8507 33.4893C23.9095 34.5559 24.5718 35.616 24.5797 35.6278L24.7825 35.9584L24.9879 35.6278C25.2197 35.2512 25.3369 35.1301 25.3474 35.1156C25.6108 34.8114 26.0546 34.2899 26.4944 33.7698L26.5181 35.1525C26.5299 35.7134 26.5273 36.7182 26.5247 37.4543H22.9219C22.9192 36.8367 22.9271 36.2388 22.9521 35.7872C23.0009 34.9497 22.9245 34.074 22.8507 33.4893ZM22.0909 26.4641C22.2397 26.4246 22.3951 26.4048 22.5545 26.4048C23.1681 26.4048 23.8594 26.6945 24.6166 27.266C24.6126 27.4188 24.6061 27.6598 24.6034 27.96C24.5955 28.4841 24.6061 29.1781 24.6205 29.8733C24.6285 30.0788 24.6337 30.2789 24.6429 30.4778L24.6403 30.4791C24.6403 30.4791 24.6416 30.483 24.6429 30.4883C24.6614 30.9676 24.6851 31.4193 24.7114 31.788C24.7456 32.3081 24.7825 32.6571 24.7825 32.6571C24.7825 32.6571 24.8207 32.3081 24.8563 31.788C24.8734 31.5299 24.8905 31.2297 24.905 30.9084C24.9419 30.9479 24.9721 30.986 25.0156 31.0242C25.0485 31.0558 25.0841 31.0835 25.1209 31.1098C25.146 31.1296 25.1736 31.148 25.1973 31.1665C25.246 31.206 25.2855 31.2573 25.3132 31.306C25.3738 31.4022 25.3988 31.4825 25.3988 31.4825C25.3988 31.4825 25.4278 31.4022 25.4172 31.2718C25.4106 31.2073 25.3922 31.1322 25.3553 31.0532C25.3316 31.0084 25.3066 30.9716 25.279 30.9373C25.2605 30.9123 25.2421 30.8833 25.2237 30.8531C25.1539 30.7266 25.088 30.5871 25.0301 30.4909C24.98 30.4027 24.9379 30.3487 24.9274 30.3382C24.9353 30.1828 24.9419 30.03 24.9458 29.8733C24.9471 29.7759 24.9498 29.6771 24.9524 29.5797C25.0472 29.6903 25.1631 29.8035 25.3013 29.901C25.3567 29.9392 25.4172 29.9708 25.4659 30.0011C25.5199 30.0314 25.5608 30.0524 25.6068 30.0853C25.699 30.1472 25.7754 30.2144 25.836 30.2789C25.9624 30.408 26.0164 30.5199 26.0164 30.5199C26.0164 30.5199 26.0032 30.3948 25.9163 30.2223C25.8715 30.138 25.807 30.0445 25.7254 29.9523C25.6885 29.9076 25.6384 29.8562 25.5924 29.8193C25.545 29.7772 25.5002 29.743 25.4633 29.7061C25.3132 29.5428 25.1907 29.3374 25.0893 29.1952C25.0353 29.1135 24.9919 29.0503 24.9603 29.0095C24.9656 28.7343 24.9682 28.4696 24.9656 28.2299C25.0933 28.3932 25.2684 28.5684 25.487 28.7027C25.5476 28.7409 25.62 28.7791 25.674 28.8172C25.7306 28.8568 25.7859 28.8989 25.8386 28.941C25.944 29.0227 26.0322 29.1135 26.102 29.2004C26.2468 29.369 26.31 29.5099 26.31 29.5099C26.31 29.5099 26.2942 29.3545 26.1928 29.1425C26.1428 29.0385 26.069 28.92 25.9756 28.8028C25.9295 28.7435 25.8781 28.6882 25.8149 28.6329C25.757 28.5736 25.7017 28.5341 25.6424 28.4828C25.437 28.3024 25.2737 28.064 25.1486 27.8889C25.0472 27.7361 24.9774 27.6321 24.959 27.6045C24.9563 27.4662 24.9524 27.3529 24.9498 27.266L24.9656 27.2476C25.013 27.191 26.1678 25.8623 27.7045 26.5892C29.4243 27.4004 29.0569 29.1517 29.0398 29.2255L29.0345 29.2623C29.0332 29.2716 28.9292 30.4053 27.4649 31.871C27.4451 31.8933 25.6437 34.0411 24.9985 34.7903C24.9893 34.7996 24.9155 34.872 24.7812 35.0656C24.4415 34.5717 23.6948 33.5723 22.6717 32.6545C21.2719 31.3995 20.0644 29.3111 20.7215 27.6914C20.7254 27.6808 21.1494 26.7117 22.0909 26.4641ZM23.2497 20.0986C23.7106 20.3949 24.1202 20.7228 24.4704 21.0849C23.3274 22.432 22.8718 24.1215 23.1404 25.9966C22.7283 25.9071 22.3359 25.9031 21.9632 26.0019C21.7051 26.0717 21.4799 26.181 21.2824 26.3113C21.1441 25.412 20.9387 22.7994 22.6888 20.6569C22.6888 20.6543 22.8837 20.4304 23.2497 20.0986ZM25.9492 26.0414C25.3896 26.2337 24.9721 26.5747 24.7575 26.7762C24.3769 26.4996 24.0069 26.2929 23.6487 26.152C23.3301 24.3229 23.7133 22.7414 24.7917 21.4444C25.8254 22.7006 26.2297 24.2729 25.9492 26.0414ZM29.4375 13.0628L29.3032 12.7376L29.0477 12.9838C28.7659 13.2617 28.4393 13.4276 28.4367 13.4315C28.1786 13.5606 26.8368 14.1308 25.7859 12.5743C24.7996 11.1139 25.8149 9.12029 25.8281 9.09395C25.8347 9.0821 26.4127 7.89564 26.9434 7.08974C27.4399 6.33784 28.0785 5.0895 28.3919 4.46533C28.7106 4.86433 29.4151 5.56882 30.9571 6.62623C33.3813 8.292 33.6908 9.39813 33.8765 10.0631C34.0384 10.6412 33.8686 11.7776 32.9876 12.4808C32.183 13.1221 31.1691 12.8508 30.6963 12.5888L30.1749 12.3017L30.5041 13.367C30.9163 14.8221 30.3579 16.1416 30.3513 16.156L30.2091 16.4866L30.5699 16.4879C35.4738 16.5168 37.9928 14.2177 38.0955 14.1202L38.4985 13.7397L37.9481 13.7028C37.5491 13.6765 37.2093 13.5461 37.2067 13.5461C36.9367 13.4408 35.6147 12.8232 36.0716 10.9994C36.4982 9.29147 38.6605 8.71602 38.6881 8.70944C38.7013 8.7068 39.9707 8.34204 40.9241 8.19983C41.8142 8.06551 43.1706 7.70602 43.8461 7.51904C43.7592 8.02469 43.7078 9.0202 43.9514 10.8743C44.3333 13.7897 43.7157 14.7589 43.347 15.3396C43.0231 15.8505 42.0631 16.4826 40.953 16.2969C39.6863 16.0876 39.3373 14.6378 39.3255 14.5824L39.1898 13.8872L38.4629 14.7194C36.2968 17.0041 31.3692 17.4176 31.3205 17.4202L29.9128 17.5308L31.2771 17.8916C32.6716 18.2603 36.1453 19.7207 36.1809 19.7378L36.5167 19.8774L36.5154 19.5139C36.5127 19.1149 36.6168 18.766 36.6181 18.7607C36.7037 18.4868 37.2251 17.1239 39.0792 17.4505C40.8108 17.7547 41.5403 19.8708 41.5482 19.8958C41.5522 19.9103 42.0065 21.1507 42.2172 22.0896C42.4121 22.9706 42.8677 24.2966 43.1021 24.9563C42.5898 24.9089 41.5943 24.9261 39.7613 25.3027C36.8814 25.8886 35.8701 25.3422 35.2618 25.0143C34.7337 24.7272 34.0332 23.8186 34.1411 22.6954C34.261 21.4154 35.6805 20.9664 35.7424 20.9479L36.4311 20.7359L31.6023 19.0056C31.4851 18.9701 28.7119 18.1655 26.4417 19.4665C26.422 19.4797 26.4035 19.4902 26.3851 19.5021C26.0822 19.2413 25.7017 18.9464 25.246 18.6382C26.023 18.1747 26.8447 17.7915 27.6927 17.5045C28.571 17.2055 29.1781 16.6973 29.498 15.9862C30.0959 14.6562 29.4664 13.126 29.4375 13.0628ZM13.8411 20.9479C13.9016 20.9664 15.3212 21.4154 15.4423 22.6954C15.549 23.8186 14.8498 24.7246 14.3164 25.0156C13.7133 25.3422 12.702 25.8886 9.82083 25.3013C7.98914 24.9261 6.99099 24.9076 6.48138 24.9563C6.71577 24.2966 7.17007 22.9706 7.36628 22.0896C7.57697 21.1507 8.02996 19.9077 8.03786 19.8892C8.04444 19.8708 8.76474 17.7547 10.5043 17.4505C12.357 17.1239 12.8772 18.4868 12.9641 18.7607C12.9654 18.766 13.0721 19.1136 13.0694 19.5139L13.0668 19.8774L13.4026 19.7352C13.4381 19.7207 16.9106 18.2603 18.3038 17.8916L19.6706 17.5308L18.2616 17.4202C18.2129 17.4176 13.2854 17.0041 11.1258 14.726L10.3923 13.8872L10.258 14.5759C10.2435 14.6377 9.89721 16.0876 8.62911 16.2956C7.5164 16.4826 6.56039 15.8479 6.23513 15.337C5.86642 14.7589 5.24884 13.7897 5.63203 10.8743C5.87696 9.0202 5.82297 8.02601 5.73606 7.51904C6.41159 7.70602 7.76923 8.06551 8.6594 8.19851C9.61146 8.34073 10.8809 8.7068 10.9006 8.71207C10.923 8.71602 13.0839 9.29147 13.5106 10.9994C13.9675 12.8232 12.6454 13.4408 12.3768 13.5461C12.3728 13.5461 12.0331 13.6765 11.6341 13.7028L11.0837 13.7397L11.4866 14.1176C11.5906 14.2177 14.1123 16.53 19.0109 16.4892L19.3743 16.4866L19.2295 16.156C19.2255 16.1416 18.6659 14.8221 19.0754 13.3736L19.4086 12.2991L18.8871 12.5888C18.4144 12.8508 17.3991 13.1221 16.5959 12.4808C15.7123 11.7776 15.545 10.6412 15.7083 10.0605C15.8927 9.39813 16.2008 8.292 18.6251 6.62623C20.1671 5.56882 20.8729 4.86564 21.1916 4.4627C21.505 5.0895 22.1449 6.33784 22.6387 7.08974C23.1707 7.89564 23.7462 9.08209 23.758 9.10184C23.7686 9.1216 24.7865 11.11 23.7989 12.5743C22.7441 14.1308 21.4049 13.5606 21.1441 13.4315C21.1415 13.4276 20.8176 13.2617 20.5318 12.9838L20.2816 12.7363L20.1447 13.0628C20.1157 13.126 19.485 14.6562 20.0841 15.9862C20.4041 16.6973 21.0111 17.2055 21.8895 17.5058C25.0893 18.5869 26.8763 20.6359 26.8907 20.653C28.6763 22.8415 28.4262 25.5239 28.2905 26.368C28.1733 26.2916 28.0495 26.2205 27.91 26.1546C27.3793 25.9044 26.8868 25.8597 26.4509 25.9216C26.817 23.1905 25.6529 20.9084 23.1404 19.4665C20.8703 18.1668 18.097 18.9701 17.9693 19.0083L13.1511 20.7359L13.8411 20.9479ZM49.087 0H0.510926H0.00131735V0.529362H0V36.7919H0.00131735L0.00658424 37.3871L0.0144846 37.9678L0.0302865 38.5341L0.0526727 39.0884L0.0790096 39.6231L0.11193 40.1458L0.154067 40.6541L0.201473 41.1519L0.25283 41.6378L0.312086 42.1105L0.379244 42.5727L0.450352 43.0218L0.528044 43.4603L0.612321 43.8922L0.704498 44.3122L0.801943 44.7231L0.905971 45.1247L1.01395 45.5185L1.13246 45.9056L1.25493 46.2822L1.38529 46.6536L1.52092 47.017L1.66314 47.3778L1.81062 47.7281L1.96601 48.077L2.12929 48.4168L2.29653 48.7552L2.47035 49.0883L2.64812 49.4189L2.83379 49.7454L3.02868 50.0694L3.22357 50.3894L3.43163 50.7054L3.65022 51.0162L3.88066 51.3243L4.12427 51.6272L4.3771 51.9261L4.64178 52.2224L4.91437 52.5134L5.19616 52.8018L5.4885 53.0823L5.7861 53.3614L6.09292 53.6353L6.40369 53.9066L6.72236 54.1765L7.04629 54.4359L7.37418 54.6967L7.70734 54.9495L8.04444 55.1984L8.38418 55.442L8.72655 55.6843L9.07024 55.9213L9.41657 56.1518L9.76157 56.3756L10.1066 56.5955L10.4555 56.8115L10.7992 57.0235L11.1403 57.2289L11.4827 57.4278L11.8184 57.624L12.1529 57.8136L12.4834 57.9966L12.8087 58.1731L13.13 58.3456L13.5909 57.4067L13.2788 57.2381L12.9601 57.063L12.6362 56.8813L12.3096 56.6969L11.9791 56.506L11.6459 56.3111L11.3102 56.1096L10.973 55.9055L10.6373 55.6922L10.2988 55.4789L9.96173 55.2576L9.62594 55.0325L9.29147 54.8073L8.96095 54.5703L8.63043 54.3346L8.30517 54.0936L7.98519 53.85L7.66783 53.6011L7.35575 53.3483L7.05156 53.0915L6.75001 52.8347L6.45899 52.5726L6.17719 52.3067L5.90198 52.0393L5.6373 51.7681L5.3792 51.4929L5.13559 51.2176L4.89725 50.9411L4.6747 50.6619L4.46401 50.3801L4.26517 50.0983L4.0795 49.8165L3.88856 49.5071L3.70553 49.1976L3.53039 48.8895L3.35789 48.5801L3.19592 48.2614L3.03658 47.9467L2.88515 47.6227L2.73898 47.2948L2.60072 46.9643L2.4664 46.6298L2.33867 46.2862L2.2162 45.9359L2.10033 45.579L1.98971 45.2143L1.88568 44.8442L1.78692 44.4611L1.69474 44.0726L1.60915 43.6723L1.52751 43.2627L1.45377 42.84L1.38266 42.4094L1.37212 42.3225H3.78849V38.0139H13.0312V42.3225H20.2342V38.0139H22.4452C22.4517 38.671 22.4649 39.3149 22.4755 39.81C22.482 40.1379 22.4873 40.3908 22.4873 40.5198C22.4886 41.0676 22.3806 42.9414 22.3806 42.9533C22.3793 42.9783 22.324 43.534 21.9132 43.534C21.7235 43.534 21.418 43.4484 21.0954 43.3549C20.4159 43.16 19.5719 42.9164 18.8055 43.1469C17.565 43.5116 16.6854 44.1674 16.0296 45.2077C15.2343 46.4705 14.4494 47.4489 12.9048 46.643C12.2148 46.2835 11.8198 45.953 11.4708 45.6594C10.9085 45.1866 10.4621 44.8126 9.19139 44.7363C9.1611 44.7363 8.41315 44.7903 7.61121 45.5632C6.95543 46.194 6.12584 46.1347 6.11662 46.1347L6.08765 46.1321L6.05473 46.14C5.88354 46.169 5.57804 46.3257 5.51483 46.7115C5.48455 46.8814 5.54907 47.0512 5.69524 47.1816C5.94148 47.4055 6.39315 47.5042 6.72236 47.4134C6.7724 47.4055 7.9391 47.2119 8.54747 46.7852C9.03074 46.4442 9.7168 46.14 10.2251 46.6298C10.4569 46.8498 10.6333 47.0117 10.7624 47.1289C10.2132 47.3949 9.24933 48.0586 8.90564 49.4926C8.81346 49.8758 8.56853 50.895 9.14793 51.0333C9.48899 51.1163 9.8893 50.7304 9.9591 50.4447C10.0236 50.1681 10.815 48.5392 11.8909 48.4036C11.9883 48.4115 12.4755 48.4629 13.0971 48.7289C14.3612 49.2714 15.5108 49.1463 16.4155 48.3694C17.3754 47.5503 18.1879 46.6799 18.1958 46.6707C18.2287 46.6364 19.0056 45.8147 20.1855 46.0518C20.4963 46.1137 20.8874 46.2519 20.998 46.564C21.1007 46.8577 20.9387 47.1934 20.7702 47.3936C20.4423 47.7834 19.1452 48.5853 18.6896 48.8526C18.6738 48.8592 17.224 49.5466 15.8558 49.5743C14.2756 49.6045 13.2709 50.9306 13.1274 51.3032C12.993 51.6561 12.7323 52.5647 12.7218 52.6029L12.7126 52.6438C12.706 52.7241 12.6744 53.1336 12.9456 53.3153C13.0602 53.393 13.263 53.4497 13.5738 53.2811C13.9965 53.0493 14.4758 51.9379 14.6312 51.5587C14.701 51.4692 15.0828 51.0333 15.9928 51.0965C16.0033 51.0965 17.0528 51.0978 17.3583 51.1228C17.5097 51.1347 17.7336 51.2124 17.86 51.3928C17.997 51.5864 18.0167 51.8695 17.9206 52.2355C17.6664 53.2047 17.4873 53.8605 17.3162 54.1054C17.2371 54.2213 16.8474 54.8073 17.066 55.1641C17.1344 55.2774 17.2832 55.4038 17.6045 55.3604C17.6546 55.3525 18.7844 55.1457 19.1149 53.6064C19.1492 53.5142 19.3151 53.0941 19.4428 52.7873C19.6219 52.3514 19.5113 51.5613 19.4929 51.4494C19.485 51.427 19.3638 50.9319 19.9274 50.6672C20.0775 50.6132 21.4022 50.1181 21.7736 49.5466C21.9487 49.2832 22.0488 49.0475 22.1239 48.8763C22.1673 48.7763 22.2226 48.6472 22.2516 48.6261C22.2674 48.6169 22.2898 48.6064 22.3082 48.6143C22.3517 48.6354 22.4346 48.7473 22.4913 49.0423C22.5281 49.2292 22.536 49.4123 22.5452 49.6072C22.5663 50.0483 22.5926 50.5487 22.9732 51.1268C23.3037 51.6298 22.9758 51.9603 22.8705 52.0472C22.6493 52.15 21.4088 52.7702 21.3272 54.0646C21.3048 54.3925 21.3035 54.6585 21.3008 54.885C21.2929 55.5368 21.2798 55.6843 20.9795 55.8831C20.8018 56.003 20.6385 56.0938 20.4976 56.1728C20.175 56.3559 19.9208 56.4968 19.8642 56.7812C19.8076 57.0696 19.8734 57.3171 20.0486 57.4712C20.2566 57.649 20.5792 57.6622 21.0204 57.5055C21.0757 57.4804 22.3675 56.9129 22.5768 55.8094L22.6045 55.6645C22.7731 54.7652 22.8837 54.2516 23.2392 54.1858C23.471 54.1423 23.8357 54.2845 24.0807 54.5202C24.1939 54.6295 24.3783 54.8521 24.3387 55.1141C24.315 55.28 24.2663 55.4973 24.2123 55.7462C24.0372 56.531 23.8212 57.5041 24.0372 58.1849C24.3229 59.0856 24.5824 59.6492 25.0656 59.877C25.1394 59.91 25.2184 59.9271 25.2908 59.9271C25.4225 59.9271 25.5463 59.8731 25.6437 59.7691C25.9347 59.4557 25.9123 58.8078 25.591 58.2284C25.2526 57.62 25.4449 56.6021 25.7385 55.8528C25.7728 55.7646 25.8175 55.6645 25.8689 55.5539C26.1823 54.8692 26.7064 53.7222 25.9255 52.5871L25.7227 52.2961C24.9932 51.2413 24.4638 50.4802 24.5047 49.5321C24.5402 48.7486 24.8892 48.1271 25.1236 48.0244C25.1539 48.0112 25.1591 48.0138 25.171 48.0244C25.4449 48.2601 25.7346 48.6657 26.048 49.2622C26.1902 49.5242 26.2955 49.6704 26.4101 49.8284C26.5023 49.9509 26.5958 50.0786 26.7235 50.2853C27.029 50.7963 27.1528 51.697 27.0356 52.5845C26.9 53.6261 27.4899 54.8231 28.1114 55.1958C28.6395 55.5131 29.9431 56.2571 29.9458 56.2597C29.9497 56.2624 30.4422 56.5837 30.5041 56.9998C30.5554 57.3501 30.8267 57.5766 31.1612 57.5515C31.4996 57.5265 31.7551 57.2618 31.7551 56.9379C31.7551 56.4915 31.7551 55.6685 30.9386 55.0628C30.7464 54.9232 30.5238 54.7981 30.2881 54.669C29.6218 54.3029 28.9344 53.9237 28.9265 53.0941C28.9186 51.9195 29.078 51.3059 29.0859 51.2703C29.0925 51.2124 29.2505 49.9074 28.3959 49.3412C28.2918 49.2108 27.8178 48.5774 27.9297 47.9796C27.9903 47.6517 28.2273 47.3752 28.6329 47.1579C30.1472 46.3494 31.2744 47.8624 31.3205 47.9269L31.3508 47.9625C31.3548 47.9638 31.8012 48.3997 32.0895 49.3201C32.0935 49.3451 32.1936 49.86 32.7163 50.1918C33.0956 50.4341 33.1272 50.4539 32.9389 50.9925C32.8994 51.1031 32.8414 51.2163 32.7782 51.3322C32.5768 51.7088 32.3305 52.175 32.5333 52.9427C32.6466 53.372 32.8691 53.6287 33.0482 53.8328C33.2918 54.1133 33.4248 54.2634 33.2957 54.7309C33.0851 55.4789 33.0377 55.7975 33.4129 55.949C33.4274 55.9542 33.4432 55.9595 33.4604 55.97C33.6091 56.0622 33.8146 56.0135 34.0358 55.8331C34.4058 55.5315 34.9207 54.7217 34.5125 53.6024C34.4256 53.3654 34.3294 53.1771 34.2491 53.0098C33.9989 52.5055 33.883 52.2764 34.3795 51.3533C34.6007 50.9411 35.0721 50.8647 35.4277 50.8805C36.2731 50.9056 37.2528 51.4297 37.4345 51.8234C37.8098 52.6438 38.5525 53.4826 39.4321 53.181C39.7231 53.1692 40.2459 53.0138 40.4039 52.4792C40.4764 52.2329 40.3789 52.0828 40.3118 52.013C40.0708 51.7615 39.5375 51.8352 39.2478 51.8998C39.1266 51.8339 38.8356 51.6377 38.6802 51.1637C38.405 50.3327 37.4885 49.1463 36.3784 49.2319C36.3455 49.2332 36.3165 49.2332 36.2902 49.2332C36.1862 49.2332 36.1467 49.2187 36.1427 49.2213C36.1256 49.0923 36.4522 48.5998 37.079 48.2364C37.5254 47.9743 37.9876 47.6109 38.3971 47.2896C38.7698 46.9959 39.1556 46.6904 39.3202 46.6457C39.4018 46.6233 39.4848 46.5917 39.5691 46.5548C39.9114 46.4113 40.2999 46.2506 41.3402 47.0934C42.7992 48.2719 43.8645 47.1618 43.8751 47.15L43.908 47.1052C43.9264 47.0723 44.0884 46.7734 43.9212 46.5034C43.7829 46.2822 43.4945 46.1887 43.0415 46.2164C42.4397 46.2506 42.3094 46.1453 42.0473 45.9319C41.9314 45.8345 41.7879 45.7147 41.5798 45.5896C40.9609 45.2143 39.9193 44.5822 38.4748 45.4263C37.9784 45.7186 37.6162 45.9978 37.2962 46.2427C36.7814 46.6417 36.41 46.9261 35.7819 47.017C34.7864 47.1618 33.8672 46.3678 33.675 45.9214C33.4498 45.3934 32.1633 43.4985 30.5976 43.3549C30.404 43.3036 29.2347 43.0376 27.8626 43.7605C27.5663 43.9212 27.4399 43.8408 27.4004 43.8119C27.0527 43.5867 26.9553 42.5411 26.9987 41.8551V38.355C26.9987 38.3497 27 38.218 27.0014 38.0139H29.4757V42.3225H36.6787V41.9459V41.8946V37.9165H45.9214V42.2251H48.2403L48.2153 42.4094L48.1455 42.84L48.0718 43.2627L47.9888 43.6723L47.9032 44.0726L47.8124 44.4611L47.7136 44.8442L47.6082 45.2143L47.4976 45.579L47.3831 45.9359L47.2606 46.2835L47.1329 46.6298L46.9986 46.9643L46.859 47.2948L46.7115 47.6227L46.5614 47.944L46.4034 48.2614L46.2401 48.5774L46.0689 48.8895L45.8911 49.1976L45.7107 49.5071L45.5198 49.8165L45.3341 50.0983L45.1353 50.3801L44.9233 50.6619L44.6994 50.9411L44.4637 51.2176L44.2188 51.4929L43.962 51.7681L43.6973 52.0393L43.4221 52.3067L43.139 52.5726L42.8479 52.8347L42.549 53.0915L42.2422 53.3483L41.9314 53.6011L41.6141 53.85L41.2941 54.0936L40.9688 54.3346L40.6396 54.5703L40.3065 54.8073L39.9733 55.0325L39.6389 55.2576L39.3004 55.4789L38.962 55.6922L38.6262 55.9055L38.2878 56.1096L37.9533 56.3111L37.6189 56.506L37.2897 56.6969L36.9618 56.8813L36.6378 57.063L36.3205 57.2381L36.0071 57.4067L35.6739 57.5818L35.3342 57.757L34.9892 57.9374L34.6389 58.1151L34.2807 58.2955L33.9186 58.472L33.5499 58.6537L33.1825 58.8341L32.8085 59.0132L32.4293 59.1949L32.0527 59.3753L31.6721 59.5557L31.2902 59.7348L30.9084 59.9139L30.5265 60.0956L30.1459 60.2721L29.3861 60.625L28.6368 60.9766L28.2708 61.1504L27.9034 61.3203L27.5439 61.4901L27.1857 61.6613L26.8368 61.8286L26.4904 61.9892L26.1507 62.1525L25.8215 62.3158L25.4975 62.4725L25.1815 62.6305L24.8734 62.7833L24.801 62.8201L24.7272 62.7833L24.4217 62.6305L24.1057 62.4725L23.7817 62.3158L23.4512 62.1525L23.1128 61.9892L22.7652 61.8286L22.4162 61.6613L22.0567 61.4901L21.6972 61.319L21.3311 61.1504L20.9624 60.9766L20.2132 60.625L19.4547 60.2721L19.0728 60.0956L18.6896 59.9139L18.3077 59.7348L17.9285 59.5557L17.5466 59.3753L17.17 59.1949L16.7921 59.0132L16.4181 58.8341L16.0467 58.6537L15.6807 58.472L15.3185 58.2955L14.9604 58.1151L14.6088 57.9374L14.2638 57.757L13.9254 57.5818L13.5922 57.4067L13.13 58.3456L13.4671 58.5247L13.8095 58.7051L14.1624 58.8828L14.5192 59.0646L14.8814 59.245L15.2461 59.4267L15.6148 59.6097L15.9888 59.7888L16.3654 59.9745L16.7433 60.1523L17.1239 60.334L17.5045 60.517L17.8903 60.6987L18.2722 60.8765L18.654 61.0582L19.0359 61.236L19.7944 61.5889L20.5437 61.9405L20.9137 62.113L21.2785 62.2855L21.6406 62.4541L21.9922 62.6213L22.3425 62.7872L22.6861 62.9518L23.0206 63.1138L23.3525 63.2731L23.6711 63.4298L23.9819 63.5826L24.2861 63.7353L24.5771 63.8828L24.8023 64L25.0261 63.8828L25.3185 63.7353L25.62 63.5826L25.9321 63.4298L26.2521 63.2731L26.5813 63.1138L26.9171 62.9518L27.2581 62.7872L27.6084 62.6213L27.9613 62.4541L28.3221 62.2855L28.6869 62.113L29.0569 61.9405L29.8049 61.5889L30.5647 61.236L30.9452 61.0582L31.3271 60.8765L31.709 60.6987L32.0935 60.517L32.4741 60.334L32.8546 60.1523L33.2339 59.9745L33.6091 59.7888L33.9844 59.6097L34.3518 59.4267L34.7192 59.245L35.0813 59.0646L35.4356 58.8828L35.7885 58.7024L36.1322 58.5247L36.4693 58.3456L36.7906 58.1731L37.1158 57.9966L37.445 57.8136L37.7808 57.624L38.1179 57.4278L38.459 57.2289L38.8 57.0235L39.1451 56.8115L39.4914 56.5955L39.8377 56.3756L40.1827 56.1518L40.5277 55.9213L40.8727 55.6843L41.2151 55.442L41.5535 55.1984L41.8919 54.9495L42.2251 54.6967L42.553 54.4359L42.8769 54.1765L43.193 53.9066L43.5064 53.6353L43.8145 53.3614L44.1121 53.0823L44.4018 52.8018L44.6836 52.5134L44.9575 52.2211L45.2209 51.9261L45.475 51.6272L45.7173 51.3243L45.9491 51.0162L46.1676 50.7054L46.3717 50.3894L46.5706 50.0694L46.7642 49.7454L46.9498 49.4189L47.1302 49.0897L47.3041 48.7552L47.4687 48.4168L47.6319 48.077L47.7886 47.7281L47.9348 47.3778L48.077 47.017L48.2127 46.6536L48.343 46.2822L48.4668 45.9056L48.584 45.5185L48.6933 45.1247L48.7973 44.7231L48.8948 44.3122L48.9856 43.8922L49.0712 43.4603L49.1502 43.0218L49.2213 42.5727L49.2859 42.1105L49.3464 41.6378L49.3991 41.1506L49.4439 40.6541L49.486 40.1458L49.5203 39.6231L49.5479 39.0884L49.569 38.5341L49.5835 37.9678L49.594 37.3871L49.5993 36.7919V0.529362V0H49.087Z" fill="#215590"/>
<path d="M19.9318 10.9023C19.9147 11.0524 19.8963 11.1959 19.887 11.3276C19.8278 11.8978 19.8133 12.2797 19.8133 12.2797C19.8133 12.2797 19.9292 11.9162 20.074 11.3605C20.1096 11.2302 20.1425 11.0866 20.1781 10.9365C20.2347 10.8733 20.3111 10.7772 20.4098 10.6613C20.5968 10.4559 20.8378 10.1701 21.1657 10.0068C21.3342 9.92256 21.508 9.85408 21.6766 9.78034C21.8425 9.70792 22.0045 9.64339 22.1335 9.56307C22.2626 9.48801 22.3574 9.40373 22.4166 9.34053C22.4733 9.27732 22.4996 9.23386 22.4996 9.23386C22.4996 9.23386 22.4641 9.26942 22.3943 9.31551C22.3258 9.36555 22.2204 9.42349 22.0874 9.47089C21.9558 9.52356 21.7951 9.56702 21.6187 9.61442C21.4422 9.66051 21.2513 9.72372 21.0669 9.79878C20.8773 9.87647 20.6982 9.99235 20.552 10.1161C20.452 10.207 20.369 10.2992 20.2966 10.3913C20.3282 10.2202 20.3611 10.045 20.3953 9.86594C20.4269 9.68026 20.4691 9.49459 20.4928 9.30497C20.4954 9.28522 20.498 9.26942 20.5007 9.24966C20.5349 9.20489 20.5797 9.14564 20.6337 9.07848C20.7022 9.00474 20.7785 8.91783 20.872 8.84013C20.9695 8.76244 21.0709 8.6887 21.1946 8.63734C21.4633 8.52541 21.7319 8.38847 21.8991 8.2344C21.9795 8.15276 22.0308 8.07506 22.0585 8.01712C22.0901 7.95918 22.0993 7.92495 22.0993 7.92495C22.0993 7.92495 22.0229 8.05794 21.8425 8.16197C21.6647 8.26864 21.3922 8.34501 21.1183 8.41875C20.9695 8.45826 20.8193 8.52541 20.6995 8.61628C20.6521 8.6492 20.61 8.68607 20.5692 8.72294C20.6337 8.17119 20.6719 7.64315 20.6943 7.22045C20.7311 6.64895 20.7245 6.26181 20.7245 6.26181C20.7245 6.26181 20.6087 6.6292 20.4862 7.18884C20.3927 7.57862 20.2913 8.06189 20.2018 8.57545C20.1807 8.54122 20.1636 8.51225 20.1399 8.48064C20.053 8.36081 19.9292 8.24888 19.8001 8.16724C19.5605 8.01449 19.3234 7.86042 19.1852 7.7024C19.043 7.55492 19.01 7.4048 19.01 7.4048C19.01 7.4048 19.0087 7.44036 19.0193 7.50488C19.0285 7.56809 19.0561 7.65895 19.1088 7.75903C19.2207 7.95918 19.438 8.16987 19.6592 8.35423C19.8607 8.5241 19.9832 8.75849 20.0622 8.94285C20.0846 8.99684 20.103 9.04556 20.1201 9.08901C20.1122 9.14037 20.103 9.19304 20.0964 9.2444C20.0688 9.43402 20.0556 9.62232 20.0345 9.80931C20.0174 9.9963 19.999 10.1807 19.9805 10.3584C19.9753 10.4164 19.9726 10.473 19.9674 10.5296C19.9213 10.4006 19.8607 10.257 19.7685 10.1161C19.6698 9.96338 19.5236 9.81195 19.3827 9.69475C19.0877 9.44455 18.7625 9.26942 18.5557 9.10218C18.4464 9.02054 18.3687 8.93758 18.3213 8.87305C18.27 8.81248 18.2437 8.77166 18.2437 8.77166C18.2437 8.77166 18.2542 8.81643 18.2858 8.89281C18.3161 8.97182 18.374 9.07716 18.4649 9.18909C18.6492 9.4169 18.9561 9.63944 19.2089 9.88437C19.3471 10.0068 19.4472 10.1346 19.546 10.2689C19.6408 10.4019 19.7224 10.5322 19.7896 10.6494C19.8475 10.7495 19.8936 10.8338 19.9318 10.9023Z" fill="#215590"/>
<path d="M23.3331 44.2651C23.395 44.1782 23.4411 44.0742 23.4977 43.9741C23.5794 43.766 23.6492 43.5448 23.6689 43.317C23.6926 43.2024 23.694 43.0879 23.6926 42.9746L23.6913 42.6349C23.6518 41.7513 23.6123 40.8651 23.5847 40.2027C23.5491 39.5391 23.5241 39.0979 23.5241 39.0979C23.5241 39.0979 23.4977 39.5391 23.4622 40.2027C23.4332 40.8638 23.3937 41.746 23.3555 42.6323C23.3358 42.8522 23.3318 43.0629 23.2963 43.2657C23.2752 43.3644 23.2686 43.4698 23.2462 43.5646C23.2225 43.6607 23.1975 43.7542 23.1712 43.8477C23.1343 43.9306 23.1053 44.0215 23.0645 44.1005C23.0132 44.1716 22.9776 44.2546 22.9183 44.3138C22.8591 44.3731 22.8051 44.4376 22.7366 44.4784C22.6747 44.5311 22.6063 44.5667 22.5365 44.5983C22.4008 44.6654 22.256 44.6931 22.1283 44.7115C21.9992 44.7221 21.8833 44.726 21.7872 44.7194C21.5976 44.7049 21.4883 44.6799 21.4883 44.6799C21.4883 44.6799 21.5844 44.7352 21.7767 44.7879C21.8728 44.8129 21.99 44.8393 22.1309 44.8485C22.2731 44.8537 22.4351 44.8485 22.6102 44.7984C22.784 44.7563 22.9644 44.6549 23.1198 44.5114C23.2041 44.4455 23.2581 44.3507 23.3331 44.2651Z" fill="#215590"/>
<path d="M24.2643 43.5925C24.2643 43.5925 24.2498 43.6334 24.2195 43.7045C24.1918 43.7756 24.1629 43.877 24.1128 43.9928C24.0641 44.1087 24.0114 44.2404 23.9377 44.3734C23.9087 44.4432 23.8561 44.5011 23.8218 44.5696C23.7849 44.6341 23.7468 44.7 23.7138 44.7724C23.6414 44.9093 23.5545 45.0397 23.4478 45.1424C23.3464 45.2517 23.2253 45.3281 23.1186 45.3874C22.9027 45.5059 22.7275 45.5322 22.7275 45.5322C22.7275 45.5322 22.9014 45.5651 23.1621 45.5019C23.2911 45.4664 23.4426 45.415 23.5874 45.3215C23.6625 45.2807 23.7296 45.2188 23.8047 45.1661C23.8679 45.1029 23.943 45.041 23.9983 44.9673C24.0549 44.8949 24.1168 44.8224 24.1458 44.7342C24.18 44.6499 24.2103 44.5657 24.2248 44.4814C24.2682 44.3168 24.284 44.1627 24.288 44.0297C24.2998 43.8967 24.2814 43.7861 24.2774 43.7097C24.2722 43.6334 24.2643 43.5925 24.2643 43.5925Z" fill="#215590"/>
<path d="M64.5532 17.0247C64.7178 17.0892 65.0576 17.1761 65.4737 17.1761C66.2927 17.1761 67.3001 16.735 67.3001 15.1338C67.3001 13.7735 66.431 13.1941 65.3986 13.1941C65.0457 13.1941 64.7797 13.2573 64.6915 13.3455C64.5914 13.4324 64.5532 13.5852 64.5532 13.9368V17.0247ZM65.5751 12.7898C66.4692 12.7898 67.1869 12.9413 67.6912 13.3205C68.1824 13.6853 68.5103 14.2647 68.5103 15.0969C68.5103 16.7232 67.2764 17.5159 66.0531 17.6805C65.8648 17.6937 65.6238 17.6937 65.4855 17.6805L64.5532 17.4408V19.4187C64.5532 20.4906 64.6665 20.5538 65.8016 20.6288V20.9818H62.3857V20.6288C63.3944 20.5538 63.4945 20.4537 63.4945 19.4082V14.3661C63.4945 13.2573 63.3944 13.2073 62.4621 13.144V12.7898H65.5751Z" fill="#215590"/>
<path d="M72.1946 14.2405H72.1696C71.7653 15.3229 71.3624 16.4198 70.9844 17.4522H73.3034L72.1946 14.2405ZM73.4285 20.9813V20.6297C74.2238 20.5283 74.3371 20.4269 74.1725 19.9357C74.0092 19.4445 73.7577 18.7651 73.4798 17.996H70.7948C70.5933 18.5623 70.405 19.0916 70.2404 19.621C69.9639 20.415 70.0772 20.5414 71.0213 20.6297V20.9813H68.2876V20.6297C69.0816 20.5164 69.2581 20.44 69.6992 19.3313L72.3078 12.7156L72.6976 12.601C73.4798 14.7685 74.3252 17.1638 75.1298 19.3563C75.534 20.44 75.6973 20.5533 76.5177 20.6297V20.9813H73.4285Z" fill="#215590"/>
<path d="M85.1666 13.1436C84.4095 13.1937 84.1198 13.3701 84.0566 13.8863C84.0197 14.2261 83.9947 14.7686 83.9947 15.9287V16.9743C83.9947 18.4609 83.7682 19.5328 83.036 20.3019C82.4566 20.9076 81.6125 21.171 80.7803 21.171C80.0495 21.171 79.3186 20.9945 78.7643 20.5665C78.0071 19.9858 77.6542 19.0417 77.6542 17.5668V14.417C77.6542 13.2819 77.5554 13.2319 76.5586 13.1436V12.7894H79.823V13.1436C78.8275 13.2068 78.7261 13.2819 78.7261 14.417V17.289C78.7261 19.3182 79.532 20.4783 81.0963 20.4783C82.9109 20.4783 83.4772 18.9666 83.4772 16.886V15.9287C83.4772 14.7686 83.439 14.2405 83.3889 13.8495C83.3139 13.357 83.0492 13.2068 82.1669 13.1436V12.7894H85.1666V13.1436Z" fill="#215590"/>
<path d="M92.1661 19.0037C92.0898 19.3948 91.8264 20.5918 91.7118 20.9816H86.0034V20.6287C87.0621 20.5536 87.1622 20.4654 87.1622 19.3948V14.354C87.1622 13.2821 87.0753 13.2189 86.0535 13.1439V12.7896H89.3429V13.1439C88.3487 13.2189 88.2341 13.2821 88.2341 14.354V19.3316C88.2341 20.0124 88.2973 20.2639 88.5238 20.3903C88.7766 20.5286 89.2033 20.5536 89.734 20.5536C90.4266 20.5536 90.8559 20.4904 91.1456 20.1625C91.3589 19.9097 91.5986 19.508 91.7882 18.9273L92.1661 19.0037Z" fill="#215590"/>
<path d="M96.7317 14.2405H96.7054C96.3024 15.3229 95.8995 16.4198 95.5216 17.4522H97.8405L96.7317 14.2405ZM97.9656 20.9813V20.6297C98.7609 20.5283 98.8729 20.4269 98.7096 19.9357C98.545 19.4445 98.2948 18.7651 98.0169 17.996H95.3319C95.1305 18.5623 94.9422 19.0916 94.7775 19.621C94.501 20.415 94.6143 20.5414 95.5584 20.6297V20.9813H92.8247V20.6297C93.6187 20.5164 93.7952 20.44 94.2363 19.3313L96.8436 12.7156L97.2347 12.601C98.0169 14.7685 98.8623 17.1638 99.6669 19.3563C100.071 20.44 100.234 20.5533 101.054 20.6297V20.9813H97.9656Z" fill="#215590"/>
<path d="M109.188 14.7061C108.962 13.9003 108.634 13.0312 107.537 13.0312C106.566 13.0312 106.139 13.737 106.139 14.4165C106.139 15.3369 106.744 15.7649 107.738 16.2811C108.722 16.7854 109.919 17.3767 109.919 18.7909C109.919 20.1117 108.797 21.1704 107.121 21.1704C106.605 21.1704 106.202 21.0703 105.887 20.9821C105.571 20.8689 105.383 20.7806 105.269 20.7174C105.168 20.4527 105.005 19.3703 104.93 18.7646L105.294 18.6764C105.496 19.4454 106.062 20.7174 107.361 20.7174C108.306 20.7174 108.874 20.1249 108.874 19.2057C108.874 18.2721 108.18 17.8323 107.235 17.3279C106.428 16.9 105.155 16.2692 105.155 14.8444C105.155 13.6356 106.125 12.6006 107.752 12.6006C108.331 12.6006 108.86 12.7415 109.34 12.8916C109.39 13.3459 109.453 13.837 109.553 14.6298L109.188 14.7061Z" fill="#215590"/>
<path d="M117.473 14.7448C117.333 14.1391 117.22 13.8244 117.07 13.6229C116.868 13.32 116.652 13.2331 115.708 13.2331H114.813V19.4327C114.813 20.4269 114.913 20.5533 116.111 20.6297V20.9813H112.494V20.6297C113.641 20.5533 113.742 20.4269 113.742 19.4327V13.2331H112.96C111.914 13.2331 111.661 13.3332 111.498 13.6229C111.348 13.8375 111.247 14.1891 111.095 14.7448H110.73C110.794 13.989 110.856 13.1686 110.881 12.4746H111.133C111.31 12.7643 111.473 12.7907 111.826 12.7907H116.804C117.143 12.7907 117.245 12.7156 117.448 12.4746H117.712C117.712 13.0553 117.774 13.9758 117.837 14.7066L117.473 14.7448Z" fill="#215590"/>
<path d="M121.547 16.9874C122.189 16.9874 122.605 16.886 122.92 16.6345C123.413 16.2566 123.613 15.7535 123.613 15.0714C123.613 13.7112 122.719 13.2068 121.761 13.2068C121.395 13.2068 121.181 13.2569 121.081 13.3332C120.992 13.3951 120.942 13.5466 120.942 13.8876V16.9874H121.547ZM126.185 21.0827C126.033 21.0827 125.895 21.0827 125.743 21.0709C124.798 21.0208 124.269 20.743 123.701 19.9239C123.26 19.3063 122.807 18.5241 122.429 17.9065C122.214 17.5549 122 17.4022 121.345 17.4022H120.942V19.4077C120.942 20.4783 121.056 20.5533 122.064 20.6297V20.9813H118.749V20.6297C119.782 20.5533 119.897 20.4783 119.897 19.4077V14.3406C119.897 13.27 119.794 13.2318 118.812 13.1436V12.7894H121.937C122.857 12.7894 123.475 12.9039 123.954 13.22C124.458 13.5466 124.785 14.1128 124.785 14.87C124.785 15.955 124.117 16.6213 123.185 17.0243C123.4 17.4417 123.929 18.2858 124.307 18.852C124.76 19.5078 125.024 19.8357 125.327 20.1622C125.667 20.5415 125.958 20.6798 126.235 20.7548L126.185 21.0827Z" fill="#215590"/>
<path d="M130.448 14.2405H130.423C130.02 15.3229 129.615 16.4198 129.239 17.4522H131.556L130.448 14.2405ZM131.683 20.9813V20.6297C132.477 20.5283 132.59 20.4269 132.427 19.9357C132.264 19.4445 132.011 18.7651 131.734 17.996H129.049C128.848 18.5623 128.659 19.0916 128.495 19.621C128.218 20.415 128.332 20.5414 129.276 20.6297V20.9813H126.542V20.6297C127.336 20.5164 127.512 20.44 127.952 19.3313L130.561 12.7156L130.952 12.601C131.734 14.7685 132.578 17.1638 133.384 19.3563C133.788 20.44 133.952 20.5533 134.771 20.6297V20.9813H131.683Z" fill="#215590"/>
<path d="M137.813 19.3318C137.813 20.2891 138.228 20.5288 139.148 20.5288C141.505 20.5288 142.589 18.7642 142.589 16.7482C142.589 15.4498 142.111 14.3279 141.102 13.7366C140.535 13.3705 139.804 13.2191 138.96 13.2191C138.429 13.2191 138.103 13.2823 137.978 13.3705C137.85 13.4588 137.813 13.5984 137.813 14.0895V19.3318ZM139.2 12.7898C140.8 12.7898 141.985 13.119 142.767 13.863C143.383 14.4675 143.824 15.3866 143.824 16.5704C143.824 18.0834 143.245 19.2054 142.274 19.9362C141.329 20.6683 140.082 20.9818 138.531 20.9818H135.545V20.642C136.629 20.5656 136.729 20.4906 136.729 19.4187V14.3661C136.729 13.2823 136.629 13.2323 135.657 13.1572V12.7898H139.2Z" fill="#215590"/>
<path d="M144.888 20.9816V20.6287C145.921 20.5536 146.021 20.4785 146.021 19.408V14.3672C146.021 13.2953 145.921 13.2189 144.888 13.1439V12.7896H148.227V13.1439C147.193 13.2189 147.093 13.2953 147.093 14.3672V19.408C147.093 20.4904 147.193 20.5536 148.227 20.6287V20.9816H144.888Z" fill="#215590"/>
<path d="M154.606 22.1414C154.606 22.8972 153.99 23.3015 153.271 23.478L153.158 23.1251C153.624 22.9354 153.913 22.7208 153.913 22.4324C153.913 22.1546 153.662 21.9913 153.347 21.9149C153.244 21.8899 153.158 21.7885 153.158 21.6134C153.158 21.3092 153.422 21.1459 153.674 21.1459C154.153 21.1459 154.606 21.5488 154.606 22.1414ZM157.897 13.1436C157.19 13.1804 156.887 13.3451 156.837 13.8994C156.787 14.2774 156.762 14.8449 156.762 16.0169V21.0958H156.371L151.002 14.4907H150.977V17.655C150.977 18.8151 151.014 19.4195 151.053 19.7856C151.116 20.4269 151.406 20.5783 152.263 20.6297V20.9813H149.276V20.6297C150.006 20.5915 150.321 20.4269 150.384 19.8093C150.423 19.4195 150.461 18.8151 150.461 17.655V14.8818C150.461 13.9626 150.434 13.9113 150.208 13.6097C149.956 13.295 149.679 13.1936 149.086 13.1436V12.7894H150.952L156.207 19.1167H156.245V16.0169C156.245 14.8581 156.194 14.2774 156.156 13.9258C156.093 13.3569 155.79 13.1936 154.922 13.1436V12.7894H157.897V13.1436Z" fill="#215590"/>
<path d="M162.009 14.2405H161.983C161.58 15.3229 161.177 16.4198 160.8 17.4522H163.118L162.009 14.2405ZM163.243 20.9813V20.6297C164.038 20.5283 164.152 20.4269 163.987 19.9357C163.824 19.4445 163.572 18.7651 163.294 17.996H160.611C160.409 18.5623 160.219 19.0916 160.056 19.621C159.778 20.415 159.893 20.5414 160.837 20.6297V20.9813H158.102V20.6297C158.896 20.5164 159.073 20.44 159.512 19.3313L162.122 12.7156L162.513 12.601C163.294 14.7685 164.138 17.1638 164.946 19.3563C165.349 20.44 165.512 20.5533 166.331 20.6297V20.9813H163.243Z" fill="#215590"/>
<path d="M68.347 36.1135C67.3765 35.0166 66.3559 33.7814 65.2209 32.4461C64.9312 32.1064 64.7547 32.055 64.5414 32.0932V34.4872C64.5414 35.596 64.6665 35.6855 65.7002 35.7592V36.1135H62.4239V35.7592C63.3813 35.6855 63.4945 35.596 63.4945 34.4872V29.5583C63.4945 28.4127 63.3813 28.3495 62.3857 28.2744V27.9215H65.637V28.2744C64.6665 28.3495 64.5414 28.439 64.5414 29.5583V31.7653C64.8179 31.6916 65.0707 31.5138 65.4236 31.1859C66.1163 30.517 66.9735 29.6492 67.5411 28.9552C67.9058 28.5023 67.9058 28.3758 67.3264 28.3126L67.0499 28.2744V27.9215H70.0746V28.2744C69.116 28.3627 68.8263 28.4891 68.0191 29.2199C67.5411 29.6611 66.6456 30.5552 65.7884 31.4243C66.747 32.6094 68.1205 34.1725 68.7499 34.8533C69.4176 35.5709 69.6704 35.6855 70.288 35.7592V36.1135H68.347Z" fill="#215590"/>
<path d="M77.11 34.1344C77.0336 34.5255 76.7702 35.7225 76.6557 36.1136H70.9473V35.7594C72.006 35.6856 72.1074 35.5961 72.1074 34.5255V29.4847C72.1074 28.4128 72.0192 28.3496 70.9973 28.2746V27.9217H74.2867V28.2746C73.2912 28.3496 73.178 28.4128 73.178 29.4847V34.4623C73.178 35.1444 73.2412 35.3946 73.4677 35.5223C73.7205 35.6593 74.1485 35.6856 74.6778 35.6856C75.3718 35.6856 75.7997 35.6224 76.0894 35.2945C76.3041 35.0417 76.5424 34.6388 76.7307 34.058L77.11 34.1344Z" fill="#215590"/>
<path d="M78.1483 26.4483H80.9584V27.1028H78.1483V26.4483ZM77.8823 36.1138V35.7595C78.9173 35.6845 79.0174 35.6094 79.0174 34.5375V29.4968C79.0174 28.4262 78.9173 28.3498 77.8823 28.2748V27.9218H81.2218V28.2748C80.1894 28.3498 80.0893 28.4262 80.0893 29.4968V34.5375C80.0893 35.6226 80.1894 35.6845 81.2218 35.7595V36.1138H77.8823Z" fill="#215590"/>
<path d="M90.8907 28.2743C90.1849 28.3125 89.882 28.4758 89.832 29.0302C89.782 29.4094 89.7569 29.9756 89.7569 31.1489V36.2266H89.3658L83.9972 29.6227H83.9722V32.787C83.9722 33.9458 84.009 34.5516 84.0485 34.9163C84.1104 35.5589 84.4001 35.7104 85.2574 35.7604V36.1133H82.2708V35.7604C83.0017 35.7222 83.3164 35.5589 83.3796 34.9413C83.4178 34.5516 83.456 33.9458 83.456 32.787V30.0138C83.456 29.0947 83.4296 29.0433 83.2031 28.7405C82.9503 28.4257 82.6738 28.3243 82.0825 28.2743V27.9214H83.9471L89.2012 34.2487H89.2394V31.1489C89.2394 29.9888 89.1894 29.4094 89.1525 29.0565C89.088 28.4889 88.7864 28.3243 87.916 28.2743V27.9214H90.8907V28.2743Z" fill="#215590"/>
<path d="M91.8032 36.1135V35.7592C92.8369 35.6855 92.937 35.6091 92.937 34.5385V29.4978C92.937 28.4259 92.8369 28.3495 91.8032 28.2744V27.9215H95.1414V28.2744C94.109 28.3495 94.0089 28.4259 94.0089 29.4978V34.5385C94.0089 35.6223 94.109 35.6855 95.1414 35.7592V36.1135H91.8032Z" fill="#215590"/>
<path d="M100.54 29.838C100.313 29.0308 99.984 28.1617 98.8884 28.1617C97.9179 28.1617 97.4899 28.8675 97.4899 29.547C97.4899 30.4674 98.0944 30.8967 99.0899 31.4116C100.074 31.9172 101.271 32.5085 101.271 33.9201C101.271 35.2435 100.149 36.3022 98.4736 36.3022C97.9548 36.3022 97.5505 36.2022 97.2371 36.1139C96.9224 36.0007 96.7328 35.9112 96.6195 35.8479C96.5194 35.5833 96.3548 34.4995 96.2798 33.8951L96.6445 33.8082C96.846 34.5759 97.4136 35.8479 98.7119 35.8479C99.6574 35.8479 100.225 35.2554 100.225 34.3362C100.225 33.4039 99.531 32.9628 98.5855 32.4585C97.7783 32.0305 96.5063 31.3997 96.5063 29.9749C96.5063 28.7661 97.4768 27.7324 99.103 27.7324C99.6824 27.7324 100.21 27.872 100.69 28.0234C100.741 28.4764 100.804 28.9676 100.904 29.7616L100.54 29.838Z" fill="#215590"/>
<path d="M108.167 36.1135C107.197 35.0166 106.175 33.7814 105.041 32.4461C104.751 32.1064 104.575 32.055 104.36 32.0932V34.4872C104.36 35.596 104.487 35.6855 105.52 35.7592V36.1135H102.243V35.7592C103.202 35.6855 103.315 35.596 103.315 34.4872V29.5583C103.315 28.4127 103.202 28.3495 102.206 28.2744V27.9215H105.457V28.2744C104.487 28.3495 104.36 28.439 104.36 29.5583V31.7653C104.638 31.6916 104.89 31.5138 105.243 31.1859C105.937 30.517 106.794 29.6492 107.36 28.9552C107.726 28.5023 107.726 28.3758 107.147 28.3126L106.869 28.2744V27.9215H109.895V28.2744C108.936 28.3627 108.645 28.4891 107.838 29.2199C107.36 29.6611 106.466 30.5552 105.609 31.4243C106.566 32.6094 107.939 34.1725 108.57 34.8533C109.238 35.5709 109.491 35.6855 110.107 35.7592V36.1135H108.167Z" fill="#215590"/>
<path d="M113.251 26.4483H116.074V27.1028H113.251V26.4483ZM114.335 29.3717H114.308C113.905 30.4554 113.504 31.551 113.125 32.5847H115.443L114.335 29.3717ZM115.57 36.1138V35.7595C116.363 35.6595 116.477 35.5594 116.313 35.0669C116.149 34.5757 115.898 33.8949 115.62 33.1259H112.936C112.735 33.6935 112.545 34.2228 112.381 34.7522C112.104 35.5475 112.217 35.6726 113.163 35.7595V36.1138H110.428V35.7595C111.222 35.6463 111.398 35.5712 111.839 34.4625L114.448 27.8455L114.839 27.7322C115.62 29.901 116.464 32.295 117.271 34.4862C117.675 35.5712 117.839 35.6845 118.657 35.7595V36.1138H115.57Z" fill="#215590"/>
<path d="M131.026 28.2743C130.27 28.3243 129.98 28.5021 129.917 29.017C129.879 29.358 129.854 29.9005 129.854 31.0593V32.1062C129.854 33.5929 129.627 34.6648 128.896 35.4338C128.317 36.0382 127.472 36.3029 126.639 36.3029C125.909 36.3029 125.179 36.1265 124.623 35.6972C123.867 35.1178 123.515 34.1723 123.515 32.6988V29.5476C123.515 28.4125 123.413 28.3625 122.419 28.2743V27.9214H125.682V28.2743C124.688 28.3388 124.585 28.4125 124.585 29.5476V32.4209C124.585 34.4488 125.392 35.609 126.955 35.609C128.77 35.609 129.338 34.0972 129.338 32.018V31.0593C129.338 29.9005 129.299 29.3712 129.249 28.9801C129.173 28.4889 128.908 28.3388 128.027 28.2743V27.9214H131.026V28.2743Z" fill="#215590"/>
<path d="M140.471 28.2743C139.764 28.3125 139.462 28.4758 139.411 29.0302C139.361 29.4094 139.336 29.9756 139.336 31.1489V36.2266H138.944L133.577 29.6227H133.551V32.787C133.551 33.9458 133.589 34.5516 133.627 34.9163C133.69 35.5589 133.98 35.7104 134.837 35.7604V36.1133H131.849V35.7604C132.58 35.7222 132.895 35.5589 132.958 34.9413C132.996 34.5516 133.036 33.9458 133.036 32.787V30.0138C133.036 29.0947 133.008 29.0433 132.782 28.7405C132.53 28.4257 132.254 28.3243 131.661 28.2743V27.9214H133.527L138.781 34.2487H138.819V31.1489C138.819 29.9888 138.769 29.4094 138.731 29.0565C138.668 28.4889 138.366 28.3243 137.496 28.2743V27.9214H140.471V28.2743Z" fill="#215590"/>
<path d="M141.382 36.1135V35.7592C142.416 35.6855 142.517 35.6091 142.517 34.5385V29.4978C142.517 28.4259 142.416 28.3495 141.382 28.2744V27.9215H144.723V28.2744C143.688 28.3495 143.588 28.4259 143.588 29.4978V34.5385C143.588 35.6223 143.688 35.6855 144.723 35.7592V36.1135H141.382Z" fill="#215590"/>
<path d="M153.987 28.2743C153.131 28.3757 152.966 28.489 152.487 29.6227C152.147 30.4418 150.811 33.643 149.867 36.2397H149.475C148.631 33.934 147.598 31.224 146.867 29.3962C146.501 28.4521 146.301 28.3507 145.557 28.2875V27.9214H148.643V28.2743C147.749 28.3757 147.699 28.4653 147.901 29.017C148.228 29.9124 149.148 32.3459 149.992 34.5121H150.017C150.647 32.9372 151.605 30.48 152.009 29.2198C152.249 28.5021 152.172 28.4007 151.152 28.2743V27.9214H153.987V28.2743Z" fill="#215590"/>
<path d="M161.2 34.1227C161.124 34.5375 160.872 35.7227 160.759 36.1138H154.685V35.7595C155.832 35.6726 155.932 35.5712 155.932 34.5507V29.5349C155.932 28.3998 155.832 28.363 154.848 28.2748V27.9218H160.468C160.468 28.2366 160.533 29.0951 160.571 29.7364L160.205 29.7996C160.091 29.2703 159.965 28.9924 159.802 28.7172C159.624 28.4512 159.284 28.363 158.377 28.363H157.418C157.029 28.363 157.003 28.388 157.003 28.7659V31.6261H158.187C159.322 31.6261 159.386 31.526 159.549 30.6819H159.915V33.1022H159.549C159.386 32.1936 159.297 32.1199 158.2 32.1199H157.003V34.4994C157.003 35.0919 157.08 35.3566 157.306 35.5212C157.546 35.6726 157.987 35.6858 158.617 35.6858C159.574 35.6858 159.927 35.5831 160.205 35.2552C160.419 35.0037 160.658 34.5757 160.821 34.0714L161.2 34.1227Z" fill="#215590"/>
<path d="M164.872 32.1192C165.515 32.1192 165.93 32.0178 166.245 31.7649C166.737 31.387 166.939 30.884 166.939 30.2032C166.939 28.8416 166.044 28.3386 165.087 28.3386C164.72 28.3386 164.508 28.3873 164.406 28.465C164.317 28.5269 164.267 28.6783 164.267 29.0181V32.1192H164.872ZM169.509 36.2145C169.359 36.2145 169.219 36.2145 169.069 36.2026C168.124 36.1513 167.594 35.8747 167.027 35.0544C166.586 34.4381 166.133 33.6559 165.755 33.0383C165.54 32.6854 165.325 32.534 164.67 32.534H164.267V34.5382C164.267 35.6087 164.381 35.6851 165.389 35.7602V36.1131H162.074V35.7602C163.108 35.6851 163.221 35.6087 163.221 34.5382V29.4724C163.221 28.4005 163.12 28.3623 162.137 28.2741V27.9212H165.262C166.183 27.9212 166.8 28.0344 167.28 28.3504C167.783 28.6783 168.111 29.2446 168.111 30.0017C168.111 31.0855 167.443 31.7531 166.511 32.156C166.724 32.5722 167.255 33.4162 167.631 33.9838C168.085 34.6382 168.35 34.9675 168.653 35.294C168.993 35.6719 169.282 35.8115 169.56 35.8853L169.509 36.2145Z" fill="#215590"/>
<path d="M174.352 29.838C174.126 29.0308 173.798 28.1617 172.702 28.1617C171.731 28.1617 171.303 28.8675 171.303 29.547C171.303 30.4674 171.907 30.8967 172.904 31.4116C173.886 31.9172 175.083 32.5085 175.083 33.9201C175.083 35.2435 173.961 36.3022 172.286 36.3022C171.769 36.3022 171.366 36.2022 171.051 36.1139C170.735 36.0007 170.547 35.9112 170.433 35.8479C170.332 35.5833 170.169 34.4995 170.094 33.8951L170.459 33.8082C170.66 34.5759 171.226 35.8479 172.525 35.8479C173.47 35.8479 174.038 35.2554 174.038 34.3362C174.038 33.4039 173.344 32.9628 172.399 32.4585C171.592 32.0305 170.32 31.3997 170.32 29.9749C170.32 28.7661 171.289 27.7324 172.916 27.7324C173.496 27.7324 174.026 27.872 174.504 28.0234C174.554 28.4764 174.617 28.9676 174.718 29.7616L174.352 29.838Z" fill="#215590"/>
<path d="M175.995 36.1135V35.7592C177.028 35.6855 177.128 35.6091 177.128 34.5385V29.4978C177.128 28.4259 177.028 28.3495 175.995 28.2744V27.9215H179.334V28.2744C178.3 28.3495 178.2 28.4259 178.2 29.4978V34.5385C178.2 35.6223 178.3 35.6855 179.334 35.7592V36.1135H175.995Z" fill="#215590"/>
<path d="M187.036 29.8753C186.898 29.2709 186.786 28.9562 186.633 28.7521C186.433 28.4518 186.217 28.3636 185.273 28.3636H184.377V34.5645C184.377 35.5587 184.479 35.6851 185.676 35.7602V36.1131H182.058V35.7602C183.205 35.6851 183.306 35.5587 183.306 34.5645V28.3636H182.525C181.479 28.3636 181.226 28.465 181.063 28.7521C180.913 28.968 180.81 29.321 180.66 29.8753H180.294C180.357 29.1195 180.42 28.3004 180.445 27.6065H180.698C180.875 27.8962 181.038 27.9225 181.39 27.9225H186.368C186.708 27.9225 186.81 27.8461 187.012 27.6065H187.276C187.276 28.1859 187.339 29.1063 187.403 29.8385L187.036 29.8753Z" fill="#215590"/>
<path d="M190.003 26.4483H192.826V27.1028H190.003V26.4483ZM191.088 29.3717H191.061C190.657 30.4554 190.254 31.551 189.877 32.5847H192.195L191.088 29.3717ZM192.322 36.1138V35.7595C193.116 35.6595 193.23 35.5594 193.066 35.0669C192.901 34.5757 192.649 33.8949 192.372 33.1259H189.688C189.486 33.6935 189.297 34.2228 189.134 34.7522C188.856 35.5475 188.97 35.6726 189.914 35.7595V36.1138H187.181V35.7595C187.973 35.6463 188.151 35.5712 188.591 34.4625L191.2 27.8455L191.591 27.7322C192.372 29.901 193.216 32.295 194.023 34.4862C194.426 35.5712 194.59 35.6845 195.408 35.7595V36.1138H192.322Z" fill="#215590"/>
<path d="M202.028 29.8753C201.89 29.2709 201.777 28.9562 201.625 28.7521C201.424 28.4518 201.209 28.3636 200.264 28.3636H199.37V34.5645C199.37 35.5587 199.47 35.6851 200.667 35.7602V36.1131H197.051V35.7602C198.198 35.6851 198.298 35.5587 198.298 34.5645V28.3636H197.517C196.47 28.3636 196.218 28.465 196.055 28.7521C195.904 28.968 195.801 29.321 195.651 29.8753H195.286C195.349 29.1195 195.413 28.3004 195.438 27.6065H195.69C195.867 27.8962 196.029 27.9225 196.382 27.9225H201.359C201.7 27.9225 201.802 27.8461 202.003 27.6065H202.268C202.268 28.1859 202.33 29.1063 202.394 29.8385L202.028 29.8753Z" fill="#215590"/>
<path d="M209.722 34.1227C209.645 34.5375 209.392 35.7227 209.28 36.1138H203.205V35.7595C204.352 35.6726 204.453 35.5712 204.453 34.5507V29.5349C204.453 28.3998 204.352 28.363 203.369 28.2748V27.9218H208.989C208.989 28.2366 209.054 29.0951 209.091 29.7364L208.725 29.7996C208.611 29.2703 208.486 28.9924 208.322 28.7172C208.145 28.4512 207.806 28.363 206.898 28.363H205.94C205.549 28.363 205.524 28.388 205.524 28.7659V31.6261H206.709C207.844 31.6261 207.907 31.526 208.07 30.6819H208.435V33.1022H208.07C207.907 32.1936 207.817 32.1199 206.722 32.1199H205.524V34.4994C205.524 35.0919 205.601 35.3566 205.826 35.5212C206.066 35.6726 206.507 35.6858 207.138 35.6858C208.095 35.6858 208.448 35.5831 208.725 35.2552C208.939 35.0037 209.178 34.5757 209.342 34.0714L209.722 34.1227Z" fill="#215590"/>
<path d="M214.918 29.838C214.69 29.0308 214.362 28.1617 213.266 28.1617C212.295 28.1617 211.868 28.8675 211.868 29.547C211.868 30.4674 212.472 30.8967 213.468 31.4116C214.45 31.9172 215.647 32.5085 215.647 33.9201C215.647 35.2435 214.527 36.3022 212.85 36.3022C212.333 36.3022 211.93 36.2022 211.615 36.1139C211.299 36.0007 211.111 35.9112 210.996 35.8479C210.896 35.5833 210.734 34.4995 210.658 33.8951L211.022 33.8082C211.224 34.5759 211.79 35.8479 213.09 35.8479C214.034 35.8479 214.602 35.2554 214.602 34.3362C214.602 33.4039 213.908 32.9628 212.963 32.4585C212.156 32.0305 210.884 31.3997 210.884 29.9749C210.884 28.7661 211.855 27.7324 213.48 27.7324C214.06 27.7324 214.59 27.872 215.068 28.0234C215.118 28.4764 215.181 28.9676 215.282 29.7616L214.918 29.838Z" fill="#215590"/>
<path d="M66.671 44.9685C66.4445 44.1626 66.1167 43.2935 65.0197 43.2935C64.0493 43.2935 63.6213 43.998 63.6213 44.6788C63.6213 45.5992 64.227 46.0272 65.2212 46.5434C66.2049 47.0477 67.4019 47.6403 67.4019 49.0519C67.4019 50.3753 66.2799 51.4327 64.6036 51.4327C64.0874 51.4327 63.6832 51.3327 63.3685 51.2444C63.0537 51.1312 62.8641 51.0416 62.7509 50.9784C62.6508 50.7151 62.4875 49.6313 62.4111 49.0269L62.7759 48.9387C62.9774 49.7064 63.5449 50.9784 64.8433 50.9784C65.7888 50.9784 66.3563 50.3872 66.3563 49.4667C66.3563 48.5344 65.6624 48.0933 64.7169 47.5889C63.911 47.161 62.6376 46.5315 62.6376 45.1067C62.6376 43.8979 63.6081 42.8629 65.2344 42.8629C65.8138 42.8629 66.3418 43.0012 66.8212 43.1539C66.8725 43.6069 66.9357 44.0994 67.0358 44.8921L66.671 44.9685Z" fill="#215590"/>
<path d="M74.4498 49.2663C74.3734 49.6561 74.1088 50.8544 73.9955 51.2441H68.2871V50.8912C69.3458 50.8162 69.4459 50.7279 69.4459 49.6561V44.6166C69.4459 43.5434 69.3577 43.4815 68.3371 43.4064V43.0522H71.6266V43.4064C70.631 43.4815 70.5178 43.5434 70.5178 44.6166V49.5929C70.5178 50.275 70.581 50.5265 70.8075 50.6529C71.0603 50.7898 71.487 50.8162 72.0177 50.8162C72.7103 50.8162 73.1383 50.753 73.4293 50.4251C73.6426 50.1723 73.8823 49.7706 74.0706 49.1899L74.4498 49.2663Z" fill="#215590"/>
<path d="M75.2222 51.244V50.8911C76.2559 50.816 76.3573 50.7409 76.3573 49.669V44.6296C76.3573 43.5564 76.2559 43.4813 75.2222 43.4063V43.052H78.5616V43.4063C77.5292 43.4813 77.4278 43.5564 77.4278 44.6296V49.669C77.4278 50.7528 77.5292 50.816 78.5616 50.8911V51.244H75.2222Z" fill="#215590"/>
<path d="M86.7053 51.244V50.8911C87.7259 50.7897 87.7759 50.7278 87.7641 49.3925L87.7259 44.249H87.6758L84.5997 51.1557H84.3482L81.5263 44.4268H81.5L81.3116 48.0178C81.2616 49.0515 81.2616 49.6072 81.2735 50.1102C81.2998 50.7159 81.6013 50.8028 82.4336 50.8911V51.244H79.4971V50.8911C80.2279 50.8028 80.4794 50.6646 80.5676 50.1352C80.6309 49.6941 80.7059 49.1397 80.8073 47.8294L80.9838 45.2077C81.097 43.5695 81.0338 43.5195 79.8868 43.4063V43.052H81.9543L84.8276 49.3543L87.739 43.052H89.8815V43.4063C88.7727 43.5077 88.6845 43.5327 88.7214 44.8297L88.8478 49.3925C88.886 50.7278 88.9242 50.7897 90.0198 50.8911V51.244H86.7053Z" fill="#215590"/>
<path d="M99.5908 43.406C98.8849 43.4429 98.5821 43.6061 98.532 44.1618C98.482 44.5384 98.457 45.1073 98.457 46.2793V51.3569H98.0659L92.6972 44.7531H92.6722V47.9174C92.6722 49.0775 92.7091 49.6819 92.7473 50.0467C92.8105 50.6893 93.1002 50.8407 93.9574 50.8921V51.2437H90.9709V50.8921C91.7017 50.8539 92.0164 50.6893 92.0796 50.0717C92.1178 49.6819 92.156 49.0775 92.156 47.9174V45.1442C92.156 44.225 92.1297 44.1737 91.9032 43.8721C91.6517 43.5561 91.3738 43.456 90.7812 43.406V43.0518H92.6472L97.9026 49.3791H97.9395V46.2793C97.9395 45.1192 97.8894 44.5384 97.8512 44.1869C97.788 43.6193 97.4852 43.456 96.6174 43.406V43.0518H99.5908V43.406Z" fill="#215590"/>
<path d="M100.769 41.5785H103.58V42.233H100.769V41.5785ZM100.504 51.244V50.8911C101.538 50.816 101.639 50.7409 101.639 49.669V44.6283C101.639 43.5564 101.538 43.4813 100.504 43.4063V43.052H103.843V43.4063C102.81 43.4813 102.71 43.5564 102.71 44.6283V49.669C102.71 50.7528 102.81 50.816 103.843 50.8911V51.244H100.504Z" fill="#215590"/>
<path d="M112.402 49.1644C112.226 49.7438 111.911 50.6761 111.685 51.0935C111.332 51.1805 110.273 51.4333 109.365 51.4333C106.228 51.4333 104.854 49.2658 104.854 47.2629C104.854 44.6161 106.896 42.8634 109.706 42.8634C110.726 42.8634 111.583 43.1413 111.936 43.2045C112.038 43.9222 112.113 44.4265 112.188 45.1073L111.81 45.1942C111.483 43.859 110.726 43.3191 109.365 43.3191C107.26 43.3191 106.14 45.0941 106.14 47.0088C106.14 49.3659 107.525 50.979 109.441 50.979C110.726 50.979 111.407 50.2863 112.038 49.0275L112.402 49.1644Z" fill="#215590"/>
<path d="M116.969 44.5017H116.943C116.542 45.5854 116.139 46.6823 115.761 47.7147H118.078L116.969 44.5017ZM118.205 51.2438V50.8922C118.999 50.7895 119.112 50.6894 118.947 50.1982C118.784 49.7057 118.533 49.0276 118.255 48.2585H115.571C115.37 48.8248 115.18 49.3555 115.017 49.8835C114.739 50.6762 114.852 50.8026 115.798 50.8922V51.2438H113.062V50.8922C113.857 50.7776 114.034 50.7026 114.473 49.5925L117.083 42.9768L117.474 42.8635C118.255 45.031 119.1 47.4263 119.906 49.6188C120.31 50.7026 120.474 50.8158 121.293 50.8922V51.2438H118.205Z" fill="#215590"/>
</svg>
