<?xml version="1.0" encoding="utf-8"?>
<!-- Generator: Adobe Illustrator 25.4.1, SVG Export Plug-In . SVG Version: 6.00 Build 0)  -->
<svg version="1.1" id="Layer_1" xmlns="http://www.w3.org/2000/svg" xmlns:xlink="http://www.w3.org/1999/xlink" x="0px" y="0px"
	 viewBox="0 0 301.6 73.3" style="enable-background:new 0 0 301.6 73.3;" xml:space="preserve">
<style type="text/css">
	.st0{fill:#EC1C24;}
	.st1{fill:#231F20;}
</style>
<g>
	<g>
		<path d="M35.2,37.5c-0.4,0-1.1,0-1.8-0.3c-1-0.3-2.3-1-4-5.2C26.5,24.9,19.1,5.5,18.4,3.7c-0.6-1.5-0.8-1.7-1-1.7
			c-0.3,0-0.5,0.3-1,1.8L5.7,33c-0.8,2.3-1.8,4.1-3.9,4.4c-0.4,0-0.8,0.1-1.1,0.1c-0.4,0-0.7,0.1-0.7,0.3c0,0.3,0.3,0.4,0.9,0.4
			c2.2,0,4.8-0.1,5.3-0.1s2.4,0.1,3.5,0.1c0.4,0,0.8-0.1,0.8-0.4c0-0.2-0.1-0.3-0.6-0.3H9.5c-0.8,0-1.7-0.4-1.7-1.4
			c0-0.8,0.2-2,0.7-3.1l7.8-23.4c0.2-0.7,0.5-0.7,0.7,0l9.7,26.5c0.3,0.8,0,1.2-0.3,1.3c-0.2,0-0.3,0.1-0.3,0.3
			c0,0.3,0.5,0.3,1.4,0.3c3.2,0.1,6.7,0.1,7.4,0.1c0.5,0,0.9-0.1,0.9-0.4C35.8,37.5,35.5,37.5,35.2,37.5z"/>
		<path d="M40.5,37.5c-0.7-0.3-0.7-0.5-0.7-1.8c0-2.3,0.2-4.2,0.2-5c0-0.5,0.1-0.8,0.4-0.8c0.3,0,0.3,0.1,0.3,0.5
			c0,0.4,0,1.1,0.1,1.7c0.7,3.5,3.8,4.8,6.9,4.8c4.5,0,6.7-3.2,6.7-6.2c0-3.2-1.4-5.1-5.4-8.4l-2.1-1.7c-5-4.1-6.1-7-6.1-10.2
			c0-5,3.8-8.4,9.7-8.4c1.8,0,3.2,0.2,4.4,0.5c0.9,0.2,1.3,0.2,1.6,0.2c0.4,0,0.5,0.1,0.5,0.3S57,4.8,57,8c0,0.8-0.1,1.1-0.3,1.1
			c-0.3,0-0.3-0.2-0.4-0.6c0-0.6-0.3-1.8-0.6-2.3c-0.3-0.5-1.5-2.5-5.9-2.5c-3.2,0-5.8,2-5.8,5.4c0,2.7,1.2,4.4,5.7,7.9l1.3,1
			c5.5,4.4,6.9,7.3,6.9,11c0,1.9-0.8,5.5-4,7.8c-2,1.4-4.6,2-7.1,2C44.6,38.8,42.5,38.5,40.5,37.5z"/>
		<path d="M66.7,37.5C66.1,37.2,66,37,66,35.8c0-2.3,0.2-4.2,0.2-5c0-0.5,0.1-0.8,0.4-0.8c0.3,0,0.3,0.1,0.3,0.5
			c0,0.4,0,1.1,0.1,1.7c0.7,3.5,3.8,4.8,6.9,4.8c4.5,0,6.7-3.2,6.7-6.2c0-3.2-1.4-5.1-5.4-8.4l-2.1-1.7c-5-4.1-6.1-7-6.1-10.2
			c0-5,3.8-8.4,9.7-8.4c1.8,0,3.2,0.2,4.4,0.5c0.9,0.2,1.3,0.2,1.6,0.2c0.4,0,0.5,0.1,0.5,0.3s-0.2,1.8-0.2,5c0,0.8-0.1,1.1-0.3,1.1
			c-0.3,0-0.3-0.2-0.4-0.6c0-0.6-0.3-1.8-0.6-2.3S80.3,3.7,76,3.7c-3.2,0-5.8,2-5.8,5.4c0,2.7,1.2,4.4,5.7,7.9l1.3,1
			c5.5,4.4,6.9,7.3,6.9,11c0,1.9-0.8,5.5-4,7.8c-2,1.4-4.6,2-7.1,2C70.8,38.8,68.7,38.5,66.7,37.5z"/>
		<path d="M95.7,16.3c0-7.3,0-8.6-0.1-10.1C95.5,4.5,95,3.7,94,3.5c-0.5-0.1-1.1-0.2-1.5-0.2c-0.2,0-0.4-0.1-0.4-0.3
			c0-0.3,0.2-0.4,0.8-0.4c1.5,0,4.5,0.1,4.7,0.1c0.2,0,3.2-0.1,4.6-0.1c0.5,0,0.8,0.1,0.8,0.4c0,0.2-0.2,0.3-0.4,0.3
			c-0.3,0-0.6,0-1.2,0.1c-1.3,0.2-1.6,1-1.7,2.7c-0.1,1.5-0.1,2.8-0.1,10.1v8.3c0,4.5,0,8.2,0.2,10.2c0.1,1.4,0.4,2.4,1.8,2.6
			c0.7,0.1,1.6,0.2,1.9,0.2c0.4,0,0.6,0.1,0.6,0.3c0,0.2-0.2,0.4-0.7,0.4c-2.6,0-5.6-0.1-5.8-0.1c-0.2,0-3.2,0.1-4.6,0.1
			c-0.5,0-0.8-0.1-0.8-0.4c0-0.1,0.1-0.3,0.5-0.3c0.3,0,0.8,0,1.2-0.1c0.9-0.2,1.2-1.3,1.4-2.6c0.2-2,0.2-5.7,0.2-10.2L95.7,16.3
			L95.7,16.3z"/>
		<path d="M113.3,37.5c-0.7-0.3-0.7-0.5-0.7-1.8c0-2.3,0.2-4.2,0.2-5c0-0.5,0.1-0.8,0.4-0.8c0.3,0,0.3,0.1,0.3,0.5
			c0,0.4,0,1.1,0.1,1.7c0.7,3.5,3.8,4.8,6.9,4.8c4.5,0,6.7-3.2,6.7-6.2c0-3.2-1.4-5.1-5.4-8.4l-2.1-1.7c-5-4.1-6.1-7-6.1-10.2
			c0-5,3.8-8.4,9.7-8.4c1.8,0,3.2,0.2,4.4,0.5c0.9,0.2,1.3,0.2,1.6,0.2c0.4,0,0.5,0.1,0.5,0.3s-0.2,1.8-0.2,5c0,0.8-0.1,1.1-0.3,1.1
			c-0.3,0-0.3-0.2-0.4-0.6c0-0.6-0.3-1.8-0.6-2.3c-0.3-0.5-1.5-2.5-5.9-2.5c-3.2,0-5.8,2-5.8,5.4c0,2.7,1.2,4.4,5.7,7.9l1.3,1
			c5.5,4.4,6.9,7.3,6.9,11c0,1.9-0.8,5.5-4,7.8c-2,1.4-4.6,2-7.1,2C117.4,38.8,115.3,38.5,113.3,37.5z"/>
		<path d="M152.6,24.5c0,4.5,0,8.2,0.2,10.2c0.1,1.4,0.4,2.4,1.8,2.6c0.7,0.1,1.7,0.2,2.1,0.2c0.3,0,0.4,0.1,0.4,0.3
			c0,0.2-0.2,0.4-0.7,0.4c-2.6,0-5.5-0.1-5.8-0.1c-0.2,0-3.2,0.1-4.6,0.1c-0.5,0-0.8-0.1-0.8-0.4c0-0.1,0.1-0.3,0.4-0.3
			c0.4,0,1-0.1,1.4-0.2c0.9-0.2,1.2-1.2,1.4-2.6c0.2-2,0.2-5.7,0.2-10.2V4.7c-2.3,0-4.6,0-6.9,0.1c-2.9,0-4,0.4-4.8,1.5
			c-0.5,0.8-0.7,1.1-0.8,1.5c-0.1,0.4-0.3,0.5-0.5,0.5c-0.1,0-0.2-0.1-0.2-0.4c0-0.5,0.9-4.5,1-4.9c0.1-0.3,0.3-0.9,0.5-0.9
			c0.3,0,0.8,0.5,2.1,0.6c1.4,0.1,3.1,0.2,3.7,0.2h17.6c1.5,0,2.6-0.1,3.3-0.2c0.7-0.1,1.1-0.2,1.3-0.2c0.2,0,0.2,0.3,0.2,0.6
			c0,1.4-0.1,4.6-0.1,5.2c0,0.4-0.1,0.6-0.3,0.6c-0.2,0-0.3-0.1-0.4-0.8c0-0.2,0-0.3,0-0.5c-0.1-1.4-1.3-2.5-5.8-2.6
			c-2,0-3.9,0-5.9-0.1L152.6,24.5L152.6,24.5z"/>
		<path d="M175.1,16.3c0-7.3,0-8.6-0.1-10.1c-0.1-1.6-0.5-2.3-2-2.7c-0.3-0.1-0.9-0.1-1.4-0.1c-0.3,0-0.6-0.1-0.6-0.3
			c0-0.3,0.2-0.4,0.8-0.4c1.1,0,2.3,0,5.3,0.1c0.3,0,9.7,0,10.7,0c1,0,1.9-0.1,2.2-0.3c0.3-0.1,0.4-0.2,0.5-0.2
			c0.1,0,0.2,0.2,0.2,0.4c0,0.3-0.3,0.9-0.4,2.2c0,0.7-0.1,1.6-0.2,2.8c0,0.5-0.2,0.8-0.4,0.8c-0.3,0-0.4-0.2-0.4-0.6
			c0-0.6-0.1-1.2-0.2-1.5c-0.3-1.1-1.3-1.5-3.4-1.7c-0.8-0.1-5.9-0.1-6.4-0.1c-0.2,0-0.3,0.1-0.3,0.5v13c0,0.3,0,0.5,0.3,0.5
			c0.6,0,6.4,0,7.5-0.1c1.3-0.1,1.9-0.2,2.3-0.8c0.2-0.3,0.4-0.5,0.6-0.5c0.1,0,0.2,0.1,0.2,0.4c0,0.3-0.2,1.1-0.4,2.6
			c-0.1,1.5-0.1,2.5-0.2,3.2c0,0.5-0.1,0.7-0.3,0.7c-0.3,0-0.3-0.4-0.3-0.8c0-0.4,0-0.9-0.2-1.3c-0.2-0.7-0.7-1.4-2.4-1.5
			c-1.3-0.1-5.9-0.2-6.7-0.2c-0.2,0-0.3,0.1-0.3,0.3v4.1c0,1.6,0,7,0,8c0.1,1.9,0.4,3,1.5,3.4c0.8,0.3,2.1,0.4,3.9,0.4
			c1.4,0,3,0,4.2-0.4c1.5-0.5,2-1.5,2.4-3.5c0.1-0.5,0.2-0.7,0.4-0.7c0.3,0,0.3,0.4,0.3,0.7c0,0.4-0.4,3.6-0.6,4.6
			c-0.3,1.2-0.7,1.2-2.5,1.2c-3.5,0-5-0.1-6.9-0.1c-1.9,0-4-0.1-5.9-0.1c-1.1,0-2.3,0.2-3.5,0.1c-0.5,0-0.8-0.1-0.8-0.4
			c0-0.1,0.2-0.2,0.5-0.3c0.5,0,0.8,0,1.1-0.1c1-0.2,1.6-0.9,1.7-4.4c0-1.8,0.1-4.2,0.1-8.4L175.1,16.3L175.1,16.3z"/>
		<path d="M244.2,24.5c0,4.5,0,8.2,0.2,10.2c0.1,1.4,0.4,2.4,1.8,2.6c0.7,0.1,1.7,0.2,2.1,0.2c0.3,0,0.4,0.1,0.4,0.3
			c0,0.2-0.2,0.4-0.8,0.4c-2.6,0-5.5-0.1-5.8-0.1c-0.2,0-3.2,0.1-4.6,0.1c-0.5,0-0.7-0.1-0.7-0.4c0-0.1,0.1-0.3,0.4-0.3
			c0.4,0,1-0.1,1.4-0.2c0.9-0.2,1.2-1.2,1.4-2.6c0.2-2,0.2-5.7,0.2-10.2V4.7c-2.3,0-4.6,0-6.9,0.1c-2.9,0-4,0.4-4.8,1.5
			c-0.5,0.8-0.7,1.1-0.8,1.5c-0.1,0.4-0.3,0.5-0.5,0.5c-0.1,0-0.2-0.1-0.2-0.4c0-0.5,0.9-4.5,1-4.9c0.1-0.3,0.3-0.9,0.5-0.9
			c0.3,0,0.8,0.5,2.1,0.6c1.4,0.1,3.1,0.2,3.7,0.2h17.6c1.5,0,2.6-0.1,3.3-0.2c0.7-0.1,1.1-0.2,1.3-0.2c0.2,0,0.2,0.3,0.2,0.6
			c0,1.4-0.1,4.6-0.1,5.2c0,0.4-0.1,0.6-0.3,0.6c-0.2,0-0.3-0.1-0.4-0.8c0-0.2,0-0.3,0-0.5c-0.1-1.4-1.3-2.5-5.8-2.6
			c-2,0-3.9,0-5.9-0.1L244.2,24.5L244.2,24.5z"/>
		<path d="M266.6,16.3c0-7.3,0-8.6-0.1-10.1c-0.1-1.6-0.6-2.4-1.6-2.6c-0.5-0.1-1.1-0.2-1.5-0.2c-0.2,0-0.4-0.1-0.4-0.3
			c0-0.3,0.2-0.4,0.8-0.4c1.5,0,4.5,0.1,4.7,0.1c0.2,0,3.2-0.1,4.6-0.1c0.5,0,0.8,0.1,0.8,0.4c0,0.2-0.2,0.3-0.4,0.3
			c-0.3,0-0.6,0-1.2,0.1c-1.3,0.2-1.6,1-1.7,2.7c-0.1,1.5-0.1,2.8-0.1,10.1v8.3c0,4.5,0,8.2,0.2,10.2c0.1,1.4,0.4,2.4,1.8,2.6
			c0.7,0.1,1.6,0.2,1.9,0.2c0.4,0,0.6,0.1,0.6,0.3c0,0.2-0.2,0.4-0.7,0.4c-2.6,0-5.6-0.1-5.8-0.1c-0.2,0-3.2,0.1-4.6,0.1
			c-0.5,0-0.7-0.1-0.7-0.4c0-0.1,0.1-0.3,0.5-0.3c0.3,0,0.8,0,1.2-0.1c0.9-0.2,1.2-1.3,1.4-2.6c0.2-2,0.2-5.7,0.2-10.2L266.6,16.3
			L266.6,16.3z"/>
		<path d="M284.3,37.5c-0.7-0.3-0.7-0.5-0.7-1.8c0-2.3,0.2-4.2,0.2-5c0-0.5,0.1-0.8,0.4-0.8c0.3,0,0.3,0.1,0.3,0.5
			c0,0.4,0,1.1,0.1,1.7c0.7,3.5,3.8,4.8,6.9,4.8c4.5,0,6.7-3.2,6.7-6.2c0-3.2-1.4-5.1-5.4-8.4l-2.1-1.7c-5-4.1-6.1-7-6.1-10.2
			c0-5,3.8-8.4,9.7-8.4c1.8,0,3.2,0.2,4.4,0.5c0.9,0.2,1.3,0.2,1.6,0.2c0.4,0,0.5,0.1,0.5,0.3s-0.2,1.8-0.2,5c0,0.8-0.1,1.1-0.3,1.1
			c-0.3,0-0.3-0.2-0.4-0.6c0-0.6-0.3-1.8-0.6-2.3c-0.3-0.5-1.5-2.5-5.9-2.5c-3.2,0-5.8,2-5.8,5.4c0,2.7,1.2,4.4,5.7,7.9l1.3,1
			c5.5,4.4,6.9,7.3,6.9,11c0,1.9-0.7,5.5-4,7.8c-2,1.4-4.6,2-7.1,2C288.4,38.8,286.2,38.5,284.3,37.5z"/>
		<polygon class="st0" points="221.8,40.4 221.8,12.6 201.6,0 201.6,27.8 		"/>
	</g>
	<g>
		<path class="st0" d="M113.2,70.2c0.1,0.8,0.2,2,1.2,2.4c0.6,0.2,1.2,0.2,1.4,0.2c0.1,0,0.2,0,0.2,0.1c0,0.1-0.2,0.2-0.5,0.2
			c-0.5,0-2.9-0.1-3.7-0.1c-0.5,0-0.6-0.1-0.6-0.2c0-0.1,0-0.1,0.2-0.2c0.1,0,0.1-0.4,0.1-0.8l-1.1-11.5h-0.1l-5.4,11.5
			c-0.5,1-0.5,1.2-0.7,1.2c-0.2,0-0.3-0.2-0.7-1c-0.6-1.1-2.5-4.9-2.6-5.2c-0.2-0.4-2.7-5.7-2.9-6.3h-0.1l-0.9,10.3
			c0,0.4,0,0.8,0,1.1c0,0.3,0.2,0.6,0.6,0.7c0.4,0.1,0.7,0.1,0.8,0.1c0.1,0,0.2,0,0.2,0.1c0,0.2-0.1,0.2-0.4,0.2
			c-0.8,0-1.9-0.1-2.1-0.1c-0.2,0-1.3,0.1-1.9,0.1c-0.2,0-0.4,0-0.4-0.2c0-0.1,0.1-0.1,0.2-0.1c0.2,0,0.3,0,0.7-0.1
			c0.7-0.1,0.8-1,0.9-1.8l1.6-14.5c0-0.2,0.1-0.4,0.2-0.4c0.1,0,0.2,0.1,0.3,0.3l6.8,14l6.5-13.9c0.1-0.2,0.2-0.4,0.3-0.4
			s0.2,0.2,0.3,0.6L113.2,70.2z"/>
		<path class="st0" d="M120,62.7c0-3.5,0-4.1,0-4.8c0-0.8-0.2-1.1-1-1.3c-0.2,0-0.6-0.1-0.8-0.1c-0.1,0-0.2,0-0.2-0.1
			c0-0.1,0.1-0.2,0.4-0.2c0.5,0,1.1,0,1.6,0l0.9,0c0.2,0,4.6,0,5.1,0c0.4,0,0.8-0.1,1-0.1c0.1,0,0.2-0.1,0.3-0.1
			c0.1,0,0.1,0.1,0.1,0.2c0,0.2-0.1,0.4-0.2,1c0,0.2-0.1,1.2-0.1,1.5c0,0.1-0.1,0.2-0.2,0.2c-0.1,0-0.2-0.1-0.2-0.3
			c0-0.2,0-0.5-0.1-0.8c-0.2-0.4-0.4-0.6-1.6-0.8c-0.4,0-2.8-0.1-3-0.1c-0.1,0-0.1,0.1-0.1,0.2v6.1c0,0.2,0,0.2,0.1,0.2
			c0.3,0,3,0,3.5,0c0.5,0,0.8-0.1,1-0.3c0.2-0.2,0.2-0.3,0.3-0.3c0.1,0,0.1,0,0.1,0.2c0,0.1-0.1,0.5-0.2,1.2c0,0.4-0.1,1.3-0.1,1.4
			c0,0.2,0,0.4-0.2,0.4c-0.1,0-0.2-0.1-0.2-0.2c0-0.2,0-0.4-0.1-0.7c-0.1-0.3-0.3-0.7-1.2-0.8c-0.6-0.1-2.8-0.1-3.2-0.1
			c-0.1,0-0.2,0.1-0.2,0.2v2c0,0.8,0,3.3,0,3.8c0.1,1.5,0.4,1.8,2.6,1.8c0.6,0,1.6,0,2.1-0.2s0.8-0.7,1-1.6c0-0.2,0.1-0.3,0.2-0.3
			c0.1,0,0.1,0.2,0.1,0.3c0,0.2-0.2,1.7-0.3,2.2c-0.2,0.6-0.3,0.6-1.2,0.6c-1.7,0-2.9,0-3.8-0.1c-0.9,0-1.4-0.1-1.7-0.1
			c0,0-0.4,0-0.9,0c-0.4,0-1,0-1.3,0c-0.2,0-0.4,0-0.4-0.2c0-0.1,0-0.1,0.2-0.1c0.2,0,0.5,0,0.7-0.1c0.4-0.1,0.6-0.6,0.6-1.2
			c0.1-0.9,0.1-2.7,0.1-4.8V62.7z"/>
		<path class="st0" d="M133.5,62.7c0-3.5,0-4.1,0-4.8c0-0.8-0.2-1.1-1-1.3c-0.2,0-0.6-0.1-0.8-0.1c-0.1,0-0.2,0-0.2-0.1
			c0-0.1,0.1-0.2,0.4-0.2c1,0,2.4,0.1,2.5,0.1c0.3,0,1.7-0.1,3-0.1c2.2,0,6.3-0.2,8.9,2.5c1.1,1.2,2.2,3,2.2,5.6
			c0,2.8-1.2,5-2.4,6.3c-1,1-3,2.6-6.7,2.6c-1,0-2.1-0.1-3.1-0.1c-1-0.1-1.7-0.1-1.8-0.1c0,0-0.4,0-0.9,0c-0.4,0-1,0-1.3,0
			c-0.2,0-0.4,0-0.4-0.2c0-0.1,0-0.1,0.2-0.1c0.2,0,0.5,0,0.7-0.1c0.4-0.1,0.6-0.6,0.6-1.2c0.1-0.9,0.1-2.7,0.1-4.8V62.7z
			 M135.4,65.1c0,2.4,0,4.4,0,4.8c0,0.6,0.1,1.4,0.2,1.7c0.3,0.4,1.2,0.9,3.8,0.9c2.1,0,4-0.8,5.3-2.1c1.2-1.1,1.8-3.3,1.8-5.3
			c0-2.8-1.2-4.6-2.1-5.6c-2.1-2.2-4.6-2.5-7.3-2.5c-0.4,0-1.3,0.1-1.4,0.2c-0.2,0.1-0.3,0.2-0.3,0.4c0,0.8,0,3,0,4.7V65.1z"/>
		<path class="st0" d="M155.5,66.6c0,2.1,0,3.9,0.1,4.8c0.1,0.6,0.2,1.1,0.9,1.2c0.3,0,0.8,0.1,1,0.1c0.1,0,0.2,0.1,0.2,0.1
			c0,0.1-0.1,0.2-0.4,0.2c-1.2,0-2.6-0.1-2.7-0.1c-0.1,0-1.5,0.1-2.2,0.1c-0.2,0-0.4,0-0.4-0.2c0-0.1,0-0.1,0.2-0.1
			c0.2,0,0.5,0,0.7-0.1c0.4-0.1,0.6-0.6,0.6-1.2c0.1-0.9,0.1-2.7,0.1-4.8v-3.9c0-3.5,0-4.1,0-4.8c0-0.8-0.3-1.1-0.8-1.2
			c-0.2-0.1-0.5-0.1-0.7-0.1c-0.1,0-0.2,0-0.2-0.1c0-0.1,0.1-0.2,0.4-0.2c0.7,0,2.1,0.1,2.2,0.1c0.1,0,1.5-0.1,2.2-0.1
			c0.2,0,0.4,0,0.4,0.2c0,0.1-0.1,0.1-0.2,0.1c-0.2,0-0.3,0-0.6,0.1c-0.6,0.1-0.8,0.5-0.8,1.3c0,0.7,0,1.3,0,4.8V66.6z"/>
		<path class="st0" d="M163.2,71c-2.2-1.9-2.7-4.5-2.7-6.6c0-1.5,0.5-4.1,2.5-6.1c1.3-1.3,3.4-2.4,6.8-2.4c0.9,0,2.1,0.1,3.2,0.3
			c0.8,0.2,1.6,0.3,2.3,0.3c0.2,0,0.3,0.1,0.3,0.2c0,0.2-0.1,0.4-0.1,1.2c0,0.7,0,2-0.1,2.3c0,0.3-0.1,0.5-0.2,0.5
			c-0.2,0-0.2-0.2-0.2-0.5c0-0.9-0.4-1.8-0.9-2.3c-0.8-0.7-2.5-1.3-4.4-1.3c-3,0-4.3,0.9-5.1,1.6c-1.6,1.6-2,3.5-2,5.8
			c0,4.2,3.3,8.1,8,8.1c1.7,0,3-0.2,3.9-1.1c0.5-0.5,0.8-1.5,0.8-1.9c0-0.2,0.1-0.3,0.2-0.3c0.1,0,0.2,0.2,0.2,0.3
			c0,0.2-0.3,2.1-0.5,2.8c-0.1,0.4-0.2,0.5-0.6,0.6c-0.9,0.4-2.6,0.5-4,0.5C167.2,73.3,165,72.5,163.2,71z"/>
		<path class="st0" d="M179.6,62.7c0-3.5,0-4.1,0-4.8c0-0.8-0.2-1.1-1-1.3c-0.2,0-0.6-0.1-0.8-0.1c-0.1,0-0.2,0-0.2-0.1
			c0-0.1,0.1-0.2,0.4-0.2c1,0,2.4,0.1,2.6,0.1c0.2,0,1.5-0.1,2.2-0.1c0.2,0,0.4,0,0.4,0.2c0,0.1-0.1,0.1-0.2,0.1
			c-0.2,0-0.3,0-0.6,0.1c-0.6,0.1-0.8,0.5-0.8,1.3c0,0.7,0,1.3,0,4.8v3.1c0,3.2,0.7,4.6,1.7,5.5c1.1,1,2.1,1.2,3.4,1.2
			c1.4,0,2.7-0.6,3.5-1.6c1-1.3,1.3-3.2,1.3-5.4v-2.8c0-3.5,0-4.1,0-4.8c0-0.8-0.2-1.1-1-1.3c-0.2,0-0.6-0.1-0.8-0.1
			c-0.1,0-0.2,0-0.2-0.1c0-0.1,0.1-0.2,0.4-0.2c1,0,2.2,0.1,2.4,0.1c0.2,0,1.2-0.1,1.9-0.1c0.2,0,0.4,0,0.4,0.2
			c0,0.1-0.1,0.1-0.2,0.1c-0.2,0-0.3,0-0.6,0.1c-0.6,0.1-0.8,0.5-0.8,1.3c0,0.7,0,1.3,0,4.8v2.4c0,2.4-0.3,5.1-2,6.6
			c-1.6,1.4-3.3,1.6-4.6,1.6c-0.8,0-3-0.1-4.6-1.6c-1.1-1-1.9-2.6-1.9-5.8V62.7z"/>
		<path class="st0" d="M197.9,72.8c-0.3-0.2-0.3-0.2-0.3-0.8c0-1.1,0.1-2,0.1-2.4c0-0.2,0.1-0.4,0.2-0.4c0.1,0,0.2,0.1,0.2,0.2
			c0,0.2,0,0.5,0.1,0.8c0.3,1.6,1.8,2.3,3.3,2.3c2.1,0,3.2-1.5,3.2-3c0-1.5-0.6-2.4-2.6-4l-1-0.8c-2.4-1.9-2.9-3.3-2.9-4.8
			c0-2.4,1.8-4,4.6-4c0.9,0,1.5,0.1,2.1,0.2c0.4,0.1,0.6,0.1,0.8,0.1s0.2,0,0.2,0.2s-0.1,0.8-0.1,2.4c0,0.4,0,0.5-0.2,0.5
			c-0.1,0-0.2-0.1-0.2-0.3c0-0.3-0.2-0.9-0.3-1.1c-0.1-0.2-0.7-1.2-2.8-1.2c-1.5,0-2.7,1-2.7,2.6c0,1.3,0.6,2.1,2.7,3.7l0.6,0.5
			c2.6,2.1,3.2,3.4,3.2,5.2c0,0.9-0.4,2.6-1.9,3.7c-1,0.7-2.2,0.9-3.4,0.9C199.9,73.3,198.8,73.2,197.9,72.8z"/>
	</g>
	<rect y="63.9" class="st1" width="80" height="1.3"/>
	<rect x="221.6" y="63.9" class="st1" width="80" height="1.3"/>
</g>
</svg>
